<?xml version="1.0" encoding="UTF-8"?>
<!DOCTYPE svg  PUBLIC '-//W3C//DTD SVG 1.1//EN'  'http://www.w3.org/Graphics/SVG/1.1/DTD/svg11.dtd'>
<svg width="50.8mm" height="50.8mm" clip-rule="evenodd" fill-rule="evenodd" image-rendering="optimizeQuality" shape-rendering="geometricPrecision" text-rendering="geometricPrecision" viewBox="0 0 5080 5080" xml:space="preserve" xmlns="http://www.w3.org/2000/svg">
 <defs>
  <style type="text/css">
   <![CDATA[
    .fil0 {fill:#2B2A29}
    .fil73 {fill:#FEFEFE}
    .fil1 {fill:#024873}
    .fil2 {fill:#024A75}
    .fil3 {fill:#024B76}
    .fil4 {fill:#034D78}
    .fil5 {fill:#034E7A}
    .fil6 {fill:#03507B}
    .fil7 {fill:#03527D}
    .fil8 {fill:#03537F}
    .fil9 {fill:#045580}
    .fil10 {fill:#045782}
    .fil11 {fill:#045883}
    .fil12 {fill:#045A85}
    .fil13 {fill:#045B87}
    .fil14 {fill:#055D88}
    .fil15 {fill:#055F8A}
    .fil16 {fill:#05608C}
    .fil17 {fill:#05628D}
    .fil18 {fill:#05648F}
    .fil19 {fill:#066591}
    .fil20 {fill:#066792}
    .fil21 {fill:#066894}
    .fil22 {fill:#066A96}
    .fil23 {fill:#066C97}
    .fil24 {fill:#076D99}
    .fil25 {fill:#076F9B}
    .fil26 {fill:#07709C}
    .fil27 {fill:#07729E}
    .fil28 {fill:#07749F}
    .fil29 {fill:#0875A1}
    .fil30 {fill:#0877A3}
    .fil31 {fill:#0879A4}
    .fil32 {fill:#087AA6}
    .fil33 {fill:#087CA8}
    .fil34 {fill:#097DA9}
    .fil35 {fill:#097FAB}
    .fil36 {fill:#0981AD}
    .fil37 {fill:#0982AE}
    .fil38 {fill:#0984B0}
    .fil39 {fill:#0986B2}
    .fil40 {fill:#0A87B3}
    .fil41 {fill:#0A89B5}
    .fil42 {fill:#0A8AB7}
    .fil43 {fill:#0A8CB8}
    .fil44 {fill:#0A8EBA}
    .fil45 {fill:#0B8FBC}
    .fil46 {fill:#0B91BD}
    .fil47 {fill:#0B93BF}
    .fil48 {fill:#0B94C0}
    .fil49 {fill:#0B96C2}
    .fil50 {fill:#0C97C4}
    .fil51 {fill:#0C99C5}
    .fil52 {fill:#0C9BC7}
    .fil53 {fill:#0C9CC9}
    .fil54 {fill:#0C9ECA}
    .fil55 {fill:#0D9FCC}
    .fil56 {fill:#0DA1CE}
    .fil57 {fill:#0DA3CF}
    .fil58 {fill:#0DA4D1}
    .fil59 {fill:#0DA6D3}
    .fil60 {fill:#0EA8D4}
    .fil61 {fill:#0EA9D6}
    .fil62 {fill:#0EABD8}
    .fil63 {fill:#0EACD9}
    .fil64 {fill:#0EAEDB}
    .fil65 {fill:#0FB0DC}
    .fil66 {fill:#0FB1DE}
    .fil67 {fill:#0FB3E0}
    .fil68 {fill:#0FB5E1}
    .fil69 {fill:#0FB6E3}
    .fil70 {fill:#10B8E5}
    .fil71 {fill:#10B9E6}
    .fil72 {fill:#10BBE8}
    .fil74 {fill:#2B2A29;fill-rule:nonzero;fill-opacity:0.501961}
    .fil75 {fill:#FEFEFE;fill-rule:nonzero;fill-opacity:0.501961}
   ]]>
  </style>
   <mask id="c">
  <linearGradient id="d" x1="2539.8" x2="2539.8" y1="96.9" y2="2711.9" gradientUnits="userSpaceOnUse">
   <stop stop-color="#fff" offset="0"/>
   <stop stop-color="#fff" stop-opacity="0" offset="1"/>
  </linearGradient>
    <rect x="806" y="13" width="3468" height="2782" fill="url(#d)"/>
   </mask>
 </defs>
  <circle class="fil0" cx="2540" cy="2200" r="2540"/>
  <circle class="fil1" cx="2540" cy="2200" r="2532"/>
   <path class="fil2" d="m2540 78c1379 0 2497 1118 2497 2496 0 1379-1118 2496-2497 2496s-2497-1118-2497-2496c0-1379 1118-2496 2497-2496z"/>
   <path class="fil3" d="m2540 148c1360 0 2462 1102 2462 2461s-1102 2461-2462 2461-2462-1102-2462-2461 1102-2461 2462-2461z"/>
   <path class="fil4" d="m2540 218c1341 0 2427 1086 2427 2426s-1087 2426-2427 2426c-1341 0-2427-1086-2427-2426s1087-2426 2427-2426z"/>
   <path class="fil5" d="m2540 288c1321 0 2392 1070 2392 2391 0 1320-1071 2391-2392 2391s-2392-1070-2392-2391c0-1320 1071-2391 2392-2391z"/>
   <path class="fil6" d="m2540 357c1302 0 2358 1055 2358 2355 0 1301-1056 2355-2358 2355s-2358-1055-2358-2355c0-1301 1056-2355 2358-2355z"/>
   <path class="fil7" d="m2540 427c1283 0 2323 1039 2323 2320s-1040 2320-2323 2320-2323-1039-2323-2320 1040-2320 2323-2320z"/>
   <path class="fil8" d="m2540 497c1264 0 2288 1023 2288 2285s-1024 2285-2288 2285-2288-1023-2288-2285 1024-2285 2288-2285z"/>
   <path class="fil9" d="m2540 567c1245 0 2253 1007 2253 2250 0 1242-1009 2250-2253 2250-1245 0-2253-1007-2253-2250 0-1242 1009-2250 2253-2250z"/>
   <path class="fil10" d="m2540 637c1225 0 2219 991 2219 2214s-993 2214-2219 2214c-1225 0-2219-991-2219-2214s993-2214 2219-2214z"/>
   <path class="fil11" d="m2540 706c1206 0 2184 976 2184 2179 0 1204-978 2179-2184 2179s-2184-976-2184-2179 978-2179 2184-2179z"/>
   <path class="fil12" d="m2540 776c1187 0 2149 960 2149 2144s-962 2144-2149 2144-2149-960-2149-2144 962-2144 2149-2144z"/>
   <path class="fil13" d="m2540 846c1168 0 2114 944 2114 2109s-947 2109-2114 2109c-1168 0-2114-944-2114-2109s947-2109 2114-2109z"/>
   <path class="fil14" d="m2540 916c1149 0 2080 928 2080 2073s-931 2073-2080 2073-2080-928-2080-2073 931-2073 2080-2073z"/>
   <path class="fil15" d="m2540 986c1129 0 2045 913 2045 2038 0 1126-916 2038-2045 2038s-2045-913-2045-2038c0-1126 916-2038 2045-2038z"/>
   <path class="fil16" d="m2540 1055c1110 0 2010 897 2010 2003s-900 2003-2010 2003-2010-897-2010-2003 900-2003 2010-2003z"/>
   <path class="fil17" d="m2540 1125c1091 0 1975 881 1975 1968s-884 1968-1975 1968-1975-881-1975-1968 884-1968 1975-1968z"/>
   <path class="fil18" d="m2540 1195c1072 0 1941 865 1941 1932s-869 1932-1941 1932-1941-865-1941-1932 869-1932 1941-1932z"/>
   <path class="fil19" d="m2540 1265c1053 0 1906 849 1906 1897s-853 1897-1906 1897-1906-849-1906-1897 853-1897 1906-1897z"/>
   <path class="fil20" d="m2540 1335c1033 0 1871 834 1871 1862s-838 1862-1871 1862-1871-834-1871-1862 838-1862 1871-1862z"/>
   <path class="fil21" d="m2540 1404c1014 0 1836 818 1836 1827s-822 1827-1836 1827-1836-818-1836-1827 822-1827 1836-1827z"/>
   <path class="fil22" d="m2540 1474c995 0 1802 802 1802 1792 0 989-807 1792-1802 1792s-1802-802-1802-1792c0-989 807-1792 1802-1792z"/>
   <path class="fil23" d="m2540 1544c976 0 1767 786 1767 1756s-791 1756-1767 1756-1767-786-1767-1756 791-1756 1767-1756z"/>
   <path class="fil24" d="m2540 1614c957 0 1732 771 1732 1721 0 951-775 1721-1732 1721s-1732-771-1732-1721c0-951 775-1721 1732-1721z"/>
   <path class="fil25" d="m2540 1684c937 0 1697 755 1697 1686s-760 1686-1697 1686-1697-755-1697-1686 760-1686 1697-1686z"/>
   <path class="fil26" d="m2540 1753c918 0 1663 739 1663 1651s-744 1651-1663 1651c-918 0-1663-739-1663-1651s744-1651 1663-1651z"/>
   <path class="fil27" d="m2540 1823c899 0 1628 723 1628 1615s-729 1615-1628 1615-1628-723-1628-1615 729-1615 1628-1615z"/>
   <path class="fil28" d="m2540 1893c880 0 1593 707 1593 1580s-713 1580-1593 1580-1593-707-1593-1580 713-1580 1593-1580z"/>
   <path class="fil29" d="m2540 1963c861 0 1558 692 1558 1545s-698 1545-1558 1545c-861 0-1558-692-1558-1545s698-1545 1558-1545z"/>
   <path class="fil30" d="m2540 2033c841 0 1523 676 1523 1510s-682 1510-1523 1510-1523-676-1523-1510 682-1510 1523-1510z"/>
   <path class="fil31" d="m2540 2102c822 0 1489 660 1489 1474s-667 1474-1489 1474-1489-660-1489-1474 667-1474 1489-1474z"/>
   <path class="fil32" d="m2540 2172c803 0 1454 644 1454 1439s-651 1439-1454 1439-1454-644-1454-1439 651-1439 1454-1439z"/>
   <path class="fil33" d="m2540 2242c784 0 1419 629 1419 1404s-635 1404-1419 1404-1419-629-1419-1404 635-1404 1419-1404z"/>
   <path class="fil34" d="m2540 2312c765 0 1384 613 1384 1369s-620 1369-1384 1369c-765 0-1384-613-1384-1369s620-1369 1384-1369z"/>
   <path class="fil35" d="m2540 2382c745 0 1350 597 1350 1333s-604 1333-1350 1333c-745 0-1350-597-1350-1333s604-1333 1350-1333z"/>
   <path class="fil36" d="m2540 2451c726 0 1315 581 1315 1298s-589 1298-1315 1298-1315-581-1315-1298 589-1298 1315-1298z"/>
   <path class="fil37" d="m2540 2521c707 0 1280 565 1280 1263s-573 1263-1280 1263-1280-565-1280-1263 573-1263 1280-1263z"/>
   <path class="fil38" d="m2540 2591c688 0 1245 550 1245 1228s-558 1228-1245 1228c-688 0-1245-550-1245-1228s558-1228 1245-1228z"/>
   <path class="fil39" d="m2540 2661c669 0 1211 534 1211 1192 0 659-542 1192-1211 1192s-1211-534-1211-1192c0-659 542-1192 1211-1192z"/>
   <path class="fil40" d="m2540 2731c649 0 1176 518 1176 1157s-526 1157-1176 1157c-649 0-1176-518-1176-1157s526-1157 1176-1157z"/>
   <path class="fil41" d="m2540 2800c630 0 1141 502 1141 1122s-511 1122-1141 1122-1141-502-1141-1122 511-1122 1141-1122z"/>
   <path class="fil42" d="m2540 2870c611 0 1106 487 1106 1087s-495 1087-1106 1087-1106-487-1106-1087 495-1087 1106-1087z"/>
   <path class="fil43" d="m2540 2940c592 0 1072 471 1072 1052s-480 1052-1072 1052-1072-471-1072-1052 480-1052 1072-1052z"/>
   <path class="fil44" d="m2540 3010c573 0 1037 455 1037 1016s-464 1016-1037 1016-1037-455-1037-1016 464-1016 1037-1016z"/>
   <path class="fil45" d="m2540 3080c553 0 1002 439 1002 981s-449 981-1002 981-1002-439-1002-981 449-981 1002-981z"/>
   <path class="fil46" d="m2540 3149c534 0 967 423 967 946 0 522-433 946-967 946s-967-423-967-946c0-522 433-946 967-946z"/>
   <path class="fil47" d="m2540 3219c515 0 933 408 933 911s-418 911-933 911-933-408-933-911 418-911 933-911z"/>
   <path class="fil48" d="m2540 3289c496 0 898 392 898 875s-402 875-898 875-898-392-898-875 402-875 898-875z"/>
   <path class="fil49" d="m2540 3359c477 0 863 376 863 840s-386 840-863 840-863-376-863-840 386-840 863-840z"/>
   <path class="fil50" d="m2540 3428c457 0 828 360 828 805s-371 805-828 805-828-360-828-805 371-805 828-805z"/>
   <path class="fil51" d="m2540 3498c438 0 793 345 793 770s-355 770-793 770-793-345-793-770 355-770 793-770z"/>
   <path class="fil52" d="m2540 3568c419 0 759 329 759 734 0 406-340 734-759 734s-759-329-759-734c0-406 340-734 759-734z"/>
   <path class="fil53" d="m2540 3638c400 0 724 313 724 699s-324 699-724 699-724-313-724-699 324-699 724-699z"/>
   <path class="fil54" d="m2540 3708c381 0 689 297 689 664s-309 664-689 664c-381 0-689-297-689-664s309-664 689-664z"/>
   <path class="fil55" d="m2540 3777c361 0 654 281 654 629 0 347-293 629-654 629s-654-281-654-629c0-347 293-629 654-629z"/>
   <path class="fil56" d="m2540 3847c342 0 620 266 620 593 0 328-277 593-620 593-342 0-620-266-620-593 0-328 277-593 620-593z"/>
   <path class="fil57" d="m2540 3917c323 0 585 250 585 558s-262 558-585 558-585-250-585-558 262-558 585-558z"/>
   <path class="fil58" d="m2540 3987c304 0 550 234 550 523s-246 523-550 523-550-234-550-523 246-523 550-523z"/>
   <path class="fil59" d="m2540 4057c285 0 515 218 515 488 0 269-231 488-515 488-285 0-515-218-515-488 0-269 231-488 515-488z"/>
   <path class="fil60" d="m2540 4126c265 0 481 203 481 452 0 250-215 452-481 452-265 0-481-203-481-452 0-250 215-452 481-452z"/>
   <path class="fil61" d="m2540 4196c246 0 446 187 446 417s-200 417-446 417-446-187-446-417 200-417 446-417z"/>
   <path class="fil62" d="m2540 4266c227 0 411 171 411 382s-184 382-411 382-411-171-411-382 184-382 411-382z"/>
   <path class="fil63" d="m2540 4336c208 0 376 155 376 347s-169 347-376 347c-208 0-376-155-376-347s169-347 376-347z"/>
   <path class="fil64" d="m2540 4406c189 0 342 139 342 312 0 172-153 312-342 312s-342-139-342-312c0-172 153-312 342-312z"/>
   <path class="fil65" d="m2540 4475c169 0 307 124 307 276 0 153-137 276-307 276-169 0-307-124-307-276 0-153 137-276 307-276z"/>
   <path class="fil66" d="m2540 4545c150 0 272 108 272 241s-122 241-272 241-272-108-272-241 122-241 272-241z"/>
   <path class="fil67" d="m2540 4615c131 0 237 92 237 206s-106 206-237 206-237-92-237-206 106-206 237-206z"/>
   <path class="fil68" d="m2540 4685c112 0 203 76 203 171 0 94-91 171-203 171s-203-76-203-171c0-94 91-171 203-171z"/>
   <path class="fil69" d="m2540 4755c93 0 168 61 168 135 0 75-75 135-168 135s-168-61-168-135c0-75 75-135 168-135z"/>
   <path class="fil70" d="m2540 4824c73 0 133 45 133 100s-60 100-133 100-133-45-133-100 60-100 133-100z"/>
   <path class="fil71" d="m2540 4894c54 0 98 29 98 65s-44 65-98 65-98-29-98-65 44-65 98-65z"/>
  <ellipse class="fil72" cx="2540" cy="4994" rx="64" ry="30"/>
  <path class="fil73" d="m2540 13c958 0 1734 623 1734 1391s-776 1391-1734 1391-1734-623-1734-1391 776-1391 1734-1391z" mask="url(#c)"/>
  <path class="fil74" d="m1321 3245m1440-202c-54 62-114 112-180 149-66 38-133 57-200 57-74 0-145-22-215-65-69-43-126-109-169-198s-65-188-65-294c0-131 34-263 101-395s151-231 251-297 197-99 292-99c72 0 141 19 206 57 66 37 122 95 169 171l42-192h222l-179 832c-25 116-37 180-37 192 0 22 8 41 25 58 17 16 37 24 61 24 44 0 101-25 172-75 94-66 169-155 224-266s83-226 83-344c0-138-36-267-106-387-71-120-176-215-316-287s-295-108-464-108c-193 0-370 45-530 136-160 90-284 220-372 389s-132 351-132 544c0 203 44 377 132 523s215 255 382 325 351 105 554 105c217 0 398-36 544-109s256-161 329-265h224c-42 87-114 175-217 265-102 90-224 162-366 214-141 52-312 79-511 79-184 0-353-24-508-71s-287-118-396-213c-109-94-191-204-247-327-69-156-104-325-104-506 0-202 41-394 124-577 101-224 244-396 430-515s411-179 676-179c205 0 389 42 552 126s292 209 386 376c80 143 120 298 120 466 0 240-84 453-253 639-151 167-315 251-494 251-57 0-103-9-138-26s-61-42-77-75c-11-20-19-56-24-107zm-600-336c0 113 27 201 81 264s115 94 185 94c47 0 95-14 146-41 51-28 100-69 147-123 47-55 85-124 115-208s45-168 45-252c0-113-28-200-84-262s-124-93-204-93c-53 0-103 13-149 40-47 27-92 70-136 130s-79 132-105 217-40 163-40 235z"/>
  <path class="fil75" d="m1296 3198m1440-202c-54 62-114 112-180 149-66 38-133 57-200 57-74 0-145-22-215-65-69-43-126-109-169-198s-65-188-65-294c0-131 34-263 101-395s151-231 251-297 197-99 292-99c72 0 141 19 206 57 66 37 122 95 169 171l42-192h222l-179 832c-25 116-37 180-37 192 0 22 8 41 25 58 17 16 37 24 61 24 44 0 101-25 172-75 94-66 169-155 224-266s83-226 83-344c0-138-36-267-106-387-71-120-176-215-316-287s-295-108-464-108c-193 0-370 45-530 136-160 90-284 220-372 389s-132 351-132 544c0 203 44 377 132 523s215 255 382 325 351 105 554 105c217 0 398-36 544-109s256-161 329-265h224c-42 87-114 175-217 265-102 90-224 162-366 214-141 52-312 79-511 79-184 0-353-24-508-71s-287-118-396-213c-109-94-191-204-247-327-69-156-104-325-104-506 0-202 41-394 124-577 101-224 244-396 430-515s411-179 676-179c205 0 389 42 552 126s292 209 386 376c80 143 120 298 120 466 0 240-84 453-253 639-151 167-315 251-494 251-57 0-103-9-138-26s-61-42-77-75c-11-20-19-56-24-107zm-600-336c0 113 27 201 81 264s115 94 185 94c47 0 95-14 146-41 51-28 100-69 147-123 47-55 85-124 115-208s45-168 45-252c0-113-28-200-84-262s-124-93-204-93c-53 0-103 13-149 40-47 27-92 70-136 130s-79 132-105 217-40 163-40 235z"/>
</svg>
