<?xml version="1.0" encoding="UTF-8"?>
<svg width="50.8mm" height="50.8mm" viewBox="0 0 287.038 470.237" xmlns="http://www.w3.org/2000/svg">
 <path d="m105.307,46.907c-3.773,3.521-6.655,8.324-8.781,14.659-2.15,6.357-4.826,15.734-5.855,23.235l-.274,6.038-5.74,1.303-2.355,4.711 1.303,8.37c-1.052,7.501 3.156,5.283 2.859,12.304-.274,7.021 3.796,2.287 4.459,8.896 .64,2.675 1.28,5.579 1.83,8.896 .503,3.293.206,5.694 1.578,10.726 1.35,4.985 3.499,11.297 6.541,19.118 8.21,13.492 16.1,22.525 24.287,27.534 8.141,4.894 15.962,2.904 24.081,1.967 8.027-1.121 17.082-4.346 23.738-7.821 6.494-3.499 11.594-7.615 15.299-12.692 2.561-5.923 4.596-11.16 6.289-15.802 1.623-4.734 2.492-8.714 3.658-12.029 1.167-3.271 2.127-3.865 3.156-7.593 .961-3.818 1.738-8.735 2.516-15.002l5.055-10.656c1.326-12.51 3.887-7.753 3.658-16.466l-3.658-5.26-4.688-1.029c-.252-8.69-.366-11.938-1.669-18.341s-2.905-12.257-4.895-17.883c-6.586-1.075-11-2.241-13.332-3.59-2.311-1.463.479-4.071-.641-4.551-1.304-.458-3.568.777-6.519,1.944-3.019,1.167-8.21,4.734-11.068,4.871-2.882-.023-1.829-4.711-5.854-4.528-4.094.183-14.658,5.306-18.203,5.854-3.499.526-2.219-1.898-2.95-2.607-.823-.8-.411-2.516-1.944-1.967-1.646.549-4.253,4.048-7.478,5.214-3.27,1.075-8.438,2.219-11.709,1.304-3.315-1.029-5.717-5.648-7.821-7.158-2.128-1.535-3.752-2.221-4.873-1.969z" fill="#ffc080" fill-rule="evenodd"/>
 <path d="m95.839,167.974c-1.692,6.587-4.505,11.869-8.53,16.123-4.14,4.208-10.863,8.667-15.665,8.964-4.826.115-10.634-2.515-13.013-7.615-2.401-5.191-2.813-12.601-1.326-22.846-4.437-.777-7.844-2.424-10.314-4.939-2.47-2.584-3.728-5.169-4.482-10.313-.846-5.261-.961-11.915-.435-20.582-4.277-.709-7.387-2.928-9.422-6.746-2.012-3.888-2.698-10.909-2.675-16.123-.092-5.328 1.829-12.669 2.241-15.23 .366-2.562.366-2.562 0,0-2.355-4.345-3.224-9.125-2.698-14.339 .549-5.237 2.401-10.908 5.832-17.014 4.62,4.482 9.696,7.021 15.23,7.615s12.944,1.189 17.906-4.048c4.894-5.419 8.576-19.85 11.229-27.763 2.493-7.913-.869-14.042 4.025-19.278 4.894-5.305 17.289-9.833 25.087-12.097 7.684-2.287 15.322-1.83 21.062-1.35 5.694.435 9.994,1.784 12.99,4.048 9.124-2.15 18.479-3.11 28.678-2.698 10.176.389 24.424,1.555 31.811,4.917 7.203,3.247 9.032,7.684 11.662,14.796 2.562,7.227 2.081,20.285 4.025,27.786 1.967,7.318 4.002,12.486 7.615,16.123 3.499,3.59 7.775,5.466 13.446,5.374 5.672-.183 12.213-2.241 20.147-6.266 4.688,7.317 6.93,13.264 6.724,18.363-.274,5.031-2.881,8.827-8.072,11.663 4.665,5.923 7.181,11.389 7.638,16.58 .389,5.146-2.173,11.16-4.939,14.339-2.836,3.11-6.632,4.597-11.663,4.46 3.888,5.534 5.831,10.588 5.831,15.688-.068,5.031-2.743,11.571-5.831,14.339-3.088,2.676-7.203,3.271-12.532,1.783 3.156,7.593 4.14,13.745 3.133,18.821-1.12,5.054-4.345,10.199-9.422,11.206-5.236.823-15.779-1.441-21.039-5.809-5.191-4.414-8.393-11.023-9.855-20.171-1.076-3.888-1.488-7.912-1.236-12.349 .207-4.482 2.081-9.605 2.631-14.133 .525-4.574.594-8.805.389-12.944 1.783-11.114 2.264-22.411 1.35-34.509-.916-12.189-3.156-24.446-6.725-37.642-6.289-.823-10.588-1.898-12.989-3.133-2.378-1.327 1.669-4.849-1.349-4.482-3.156.366-13.241,6.518-17.016,6.723-3.727.114-.959-6.289-5.373-5.809-4.619.48-17.792,7.958-21.52,8.507-3.705.366 2.492-6.198-.457-5.832-3.111.412-12.189,8.461-17.541,8.187-5.352-.503-10.634-11.092-14.271-10.428-3.682.686-5.1,7.638-7.615,14.773-2.584,7.204-6.883,16.74-7.615,27.809-.755,11.022.297,23.326 3.156,37.619-.206.206-.229,2.149.023,5.923 .206,3.728.96,10.748 1.303,16.488 .319,5.671.388,11.434.456,17.471z" fill="#ffff80" fill-rule="evenodd"/>
 <path d="m124.608,183.73c1.212,6.061 1.006,11.503-.617,16.603-1.692,5.077-4.688,9.468-9.239,13.538 .526,6.473 2.721,11.915 6.769,16.604 4.071,4.642 10.337,9.421 17.22,11.068 6.815,1.555 16.282,2.789 23.372-1.853 6.998-4.849 13.035-13.424 18.455-26.437-6.654-7.227-11.434-13.492-14.773-19.072-3.339-5.626-4.895-10.199-4.916-14.156-9.171-1.052-16.695-1.258-22.755-.617-6.061.595-10.565,2.035-13.516,4.322z" fill="#ffc080" fill-rule="evenodd"/>
 <path d="m24.352,411.595c-5.077-20.056-9.102-38.374-12.303-55.96s-4.894-35.424-6.769-48.597c-1.853-13.104-3.773-17.745-4.299-29.522-.526-11.824-2.47-31.537 1.235-40.593 3.728-8.941 12.943-9.513 20.902-12.921s11.823-4.802 26.437-7.363c14.75-2.606 39.38-6.746 60.899-8.004 0,0 9.696,19.759 22.137,26.139 12.463,6.38 16.465,5.763 27.671-.617 11.229-6.381 17.243-24.904 17.243-24.904s31.125-.32 48.573,4.3c17.518,4.688 45.44,11.914 55.365,23.371 9.742,11.503 4.002,27.122 3.064,44.892-.938,17.814-4.573,38.877-8.599,60.899-4.048,22.046-9.079,45.006-15.391,70.115-47.544,5.946-90.057,8.782-129.758,8.599-39.699-.23-74.551-3.477-106.407-9.834z" fill="#add9f6" fill-rule="evenodd"/>
 <path d="m21.173,418.409c.983-1.646 1.646-3.407 2.241-5.19 .503-1.876-.503-3.683 1.029-5.694 1.532-1.99 4.093-4.094 7.958-6.221l.846,13.995c-4.024,1.029-8.049,2.058-12.074,3.11z" fill="#ffc080" fill-rule="evenodd"/>
 <path d="m55.316,275.617c.526-2.79 1.098-4.963 1.715-6.86 .594-1.876 1.646-3.591 2.012-4.277 .32-.731.32-.731 0,0 2.104-.731 4.322-1.212 6.563-1.44 2.264-.252 4.459-.252 6.861,0l2.858,9.719c-6.654.936-13.331,1.897-20.009,2.858z" fill="#c16562" fill-rule="evenodd"/>
 <path d="m35.466,430.576c19.484,1.144 39.403,1.943 60.991,2.31 21.588.297 47.704-.023 67.143,0 19.278.091 33.662.777 48.002.297 14.293-.595 26.437-1.807 37.139-3.728 1.966-3.888 3.361-9.742 4.276-17.998 .892-8.301.892-20.559 1.144-31.124 .229-10.611.709-23.692.297-32.017-.411-8.347-1.395-14.155-2.858-17.7-19.941-.572-35.264-.8-46.584-.869-11.319-.091-18.181.16-20.856.572-6.128-10.245-12.395-20.033-19.141-29.981-6.793-9.971-13.721-19.484-21.131-29.158-2.424,2.699-5.785,7.342-9.994,13.928-4.368,6.586-10.657,17.243-15.436,25.43-4.734,8.142-8.988,15.734-12.853,23.144-13.744-.092-26.208.092-38.008.297-11.8.274-22.412.572-32.268,1.144-1.395,9.788-2.172,20.147-2.584,31.696-.389,11.48-.229,26.116.297,36.864 .457,10.656 1.235,19.529 2.424,26.893z" fill="#c16562" fill-rule="evenodd"/>
 <path d="m159.026,272.553c3.612,6.495 7.501,13.835 12.005,22.274 4.438,8.461 9.263,17.585 14.568,27.99 8.232-1.143 18.409-1.532 31.146-1.417 12.761.091 27.329.938 44.571,2.286-.594-7.157-1.897-14.842-4.002-23.417-2.126-8.645-4.984-17.678-8.575-27.717-20.468-1.167-37.756-1.738-52.85-1.716-15.069-.022-27.121.55-36.863,1.717z" fill="#616161" fill-rule="evenodd"/>
 <path d="m50.925,273.33c-2.584,3.225-5.946,9.124-10.177,18.066-4.276,8.919-9.239,20.513-15.139,35.149 5.9-.983 13.584-1.624 23.418-2.013 9.856-.411 26.162-.297 35.149-.274 8.873-.022 14.841.068 17.997.274 8.988-15.871 15.849-27.854 20.856-36.567 4.985-8.667 7.844-13.629 8.851-15.139-11-1.235-22.983-1.807-36.567-1.715-13.606.069-28.197.778-44.388,2.219z" fill="#616161" fill-rule="evenodd"/>
 <path d="m26.753,326.546c1.464,1.921 2.698,3.728 3.705,5.42 .983,1.692 1.715,3.133 2.287,4.573 7.729-.915 15.871-1.486 24.858-1.989s20.033-.823 28.563-.869c8.461-.092 15.528.16 21.725.571 3.934-9.238 7.684-17.54 11.435-25.43 3.705-7.867 6.998-15.094 10.84-21.428 3.842-6.357 7.752-11.847 12.006-16.558 3.225,3.134 6.403,6.906 9.719,11.412 3.293,4.482 6.334,9.925 9.994,15.437 3.658,5.42 8.004,11.457 11.709,17.151 3.635,5.671 6.883,11.068 9.994,16.557 4.161-.938 11.799-1.44 23.439-1.417 11.617-.023 26.619.479 45.715,1.417l7.135-8.85c-18.866-1.304-34.097-1.967-46.561-1.99s-21.405.458-27.442,1.692c-8.096-15.757-15.437-29.135-22.274-40.843-6.861-11.732-12.967-21.177-18.569-28.861-3.636,5.374-7.638,11.571-12.006,18.867-4.437,7.249-8.987,15.733-14.27,24.561-5.397,8.805-11.183,18.021-17.723,27.992-22.251-.458-39.22-.458-51.707,0-12.441.412-19.874,1.304-22.572,2.585z" fill="#fff" fill-rule="evenodd"/>
 <path d="m25.358,327.277c3.888-12.396 7.57-23.098 11.48-32.634 3.887-9.536 7.569-17.403 11.48-24.035 14.499-.365 28.403-.365 42.33,0 13.95.366 27.168,1.053 40.523,2.149-20.261-.525-36.772-.617-50.242-.273-13.516.273-23.281.983-30.004,2.126-6.106,10.862-11.251,20.468-15.528,29.341-4.276,8.827-7.592,16.488-10.039,23.326z" fill-rule="evenodd" stroke="#000" stroke-miterlimit="10" stroke-width=".036"/>
 <path d="m56.208,268.093 .709-5.396c4.048-.893 7.432-1.166 10.405-1.075 2.973.068 5.283.755 7.181,1.807l-.366,5.375-2.859-4.666c-2.996-.229-5.42-.343-7.181-.343-1.83,0-2.996.114-3.59.343l-4.299,3.955z" fill-rule="evenodd" stroke="#000" stroke-miterlimit="10" stroke-width=".036"/>
 <path d="m32.47,336.539c19.347-3.064 34.92-4.779 47.704-5.146 12.715-.365 21.84.526 27.991,2.858-5.625-.251-14.521-.183-27.213.206-12.784.367-28.655,1.03-48.482,2.082z" fill-rule="evenodd" stroke="#000" stroke-miterlimit="10" stroke-width=".036"/>
 <path d="m109.65 328.01c5.1-12.052 10.269-22.822 15.78-33.021 5.466-10.223 11-19.256 16.877-27.626 6.449 8.096 12.99 17.129 19.713 27.626 6.724 10.45 13.447 21.931 20.445 34.806-10.863-16.146-19.531-28.769-26.186-38.396-6.678-9.65-11.16-15.871-13.629-19.004-4.322 7.066-9.194 15.024-14.705 24.4-5.602 9.352-11.526 19.553-18.295 31.215z" fill-rule="evenodd" stroke="#000" stroke-miterlimit="10" stroke-width=".036"/>
 <path d="m115.03 301.96c6.334-11.366 11.846-21.405 16.877-30.645 5.008-9.284 9.193-17.243 12.897-24.4 2.128 2.492 5.512 8.004 10.406 16.877 4.916 8.896 11 20.65 18.684 35.881-10.039-17.289-17.289-29.523-22.273-37.321-4.94-7.776-7.296-10.681-7.158-8.965-2.563 4.597-6.244 10.84-11.138 19.004-4.939 8.118-10.976 17.882-18.295 29.569z" fill-rule="evenodd" stroke="#000" stroke-miterlimit="10" stroke-width=".036"/>
 <path d="m184.73,330.548c14.27-1.44 26.733-2.173 38.008-2.013 11.229.068 20.742,1.029 28.975,2.698-6.608.343-15.345.458-26.551.343-11.297-.113-24.538-.457-40.432-1.028z" fill-rule="evenodd" stroke="#000" stroke-miterlimit="10" stroke-width=".036"/>
 <path d="m45.597,414.315c.824-5.923 1.395-11.892 1.715-18.271 .183-6.403-.229-15.116 0-19.713 .183-4.574.663-6.151 1.441-7.729 .731-1.601 1.486-1.556 3.133-1.99 1.624-.571 3.75-.869 6.563-1.143-.16,7.66-.412,15.253-.846,23.143-.458,7.89-1.029,15.619-1.715,23.715l-10.291,1.988z" fill="#fff" fill-rule="evenodd"/>
 <path d="m63.594,412.898c-.412-10.131-.571-18.867-.571-26.573 0-7.753.16-14.11.571-19.439 2.036-1.234 4.071-2.218 6.015-2.858 1.898-.687 3.248-1.144 5.717-1.12 2.516-.046 5.443.389 9.125,1.12 .641,7.182 1.052,14.773 1.144,23.144 .069,8.324-.091,17.06-.572,26.573-5.008.114-9.262.114-12.852,0s-6.45-.481-8.577-.847z" fill="#fff" fill-rule="evenodd"/>
 <path d="m96.457,364.324c3.042-.8 5.488-.388 7.432,1.145 1.944,1.555 3.339,2.722 4.002,8.004 .48,5.236-.183,16.625-.572,23.143-.365,6.495-.846,11.457-1.44,15.414l-10.565-.572c.023-11.846.091-21.474.297-29.409 .205-7.937.457-13.722.846-17.725z" fill="#fff" fill-rule="evenodd"/>
 <path d="m107.022,409.742c.8-11.114 1.006-19.941.869-26.848-.206-6.906-.32-11.229-2.012-14.293-1.807-3.11-4.574-4.505-8.553-4.277 4.024-.548 6.883-.251 8.85,1.145 1.83,1.234 1.944,2.492 2.561,6.86 .641,4.368 1.372,13.104 1.144,19.415-.275,6.289-1.258,12.166-2.859,17.998z" fill-rule="evenodd" stroke="#000" stroke-miterlimit="10" stroke-width=".036"/>
 <path d="m104.735,413.744-10.268-.846 1.418-42.285c.16,20.399.229,33.687.297,40.569 .022,6.747.022,6.747 0,0 2.836.847 5.695,1.693 8.553,2.562z" fill-rule="evenodd" stroke="#000" stroke-miterlimit="10" stroke-width=".036"/>
 <path d="m97.897,386.325 5.695.571 .297,17.998h-6.86l.868-18.569z" fill-rule="evenodd" stroke="#000" stroke-miterlimit="10" stroke-width=".036"/>
 <path d="m98.172,382.048 .298-14.293c2.287.023 3.773.687 4.55,1.989 .732,1.305-.091,3.294 0,5.718 .046,2.378.115,5.031.298,8.302l-5.146-1.716z" fill-rule="evenodd" stroke="#000" stroke-miterlimit="10" stroke-width=".036"/>
 <path d="m45.894,412.601c.549-5.512.96-11.64 1.144-18.569 .16-6.975-.663-17.997 0-22.846 .709-4.825 2.012-5.191 4.002-6.289 1.944-1.189 4.299-1.51 7.409-.869-3.544.069-6.083,1.121-7.707,3.156-1.669,1.967-1.212,1.212-1.989,8.851-.869,7.637-1.738,19.62-2.859,36.566z" fill-rule="evenodd" stroke="#000" stroke-miterlimit="10" stroke-width=".036"/>
 <path d="m48.753,414.888 8.576-.846 .571-45.715-2.012,43.702-7.135,2.859z" fill-rule="evenodd" stroke="#000" stroke-miterlimit="10" stroke-width=".036"/>
 <path d="m54.47,409.468 .846-19.438h-4.574c-.137,10.634-.229,17.563-.274,21.153-.045,3.522-.045,3.522 0,0l4.002-1.715z" fill-rule="evenodd" stroke="#000" stroke-miterlimit="10" stroke-width=".036"/>
 <path d="m54.745,386.896 .571-17.998c-1.235.343-2.126,1.075-2.858,2.287-.754,1.166-1.258,2.195-1.418,4.849-.137,2.606.023,6.197.572,10.862h3.133z" fill-rule="evenodd" stroke="#000" stroke-miterlimit="10" stroke-width=".036"/>
 <path d="m65.881,363.182c2.355-1.212 4.962-2.059 7.729-2.287 2.79-.343 6.358-.068 8.851.571 2.378.664 4.185,1.602 5.419,3.156l-.846,47.979-9.422.298 7.981-2.287c.252-11.366.32-20.65.297-28.289-.068-7.615-.229-13.241-.572-17.129-3.087-1.395-6.197-2.286-9.422-2.584-3.245-.343-6.584-.183-10.015.572z" fill-rule="evenodd" stroke="#000" stroke-miterlimit="10" stroke-width=".036"/>
 <path d="m67.894,366.314c2.218-1.235 4.505-1.829 7.135-1.692 2.539.092 5.329.847 8.279,2.264l-.274,17.151-15.437.275c.091-5.992.182-11.983.297-17.998z" fill-rule="evenodd" stroke="#000" stroke-miterlimit="10" stroke-width=".036"/>
 <path d="m67.894,388.314 14.567-.572-.297,18.021c-3.865.595-6.975.938-9.422,1.121-2.447.138-4.162.046-5.146-.274 .092-6.084.183-12.189.298-18.296z" fill-rule="evenodd" stroke="#000" stroke-miterlimit="10" stroke-width=".036"/>
 <path d="m62.177,376.605-.297,28.563c.915-5.97 1.395-11.184 1.441-15.985 .045-4.78-.367-8.942-1.144-12.578z" fill-rule="evenodd" stroke="#000" stroke-miterlimit="10" stroke-width=".036"/>
 <path d="m133.893,334.618c.114-5.671.114-10.726 0-15.437-.16-4.757-1.624-9.01-.869-12.577 .709-3.591 3.042-6.77 5.146-8.553 2.081-1.784 4.367-2.425 7.135-2.013 2.744,1.646 4.779,3.933 6.014,6.86 1.145,2.882 1.029,5.282 1.418,10.565 .412,5.328.824,12.074 1.145,20.856-6.656.093-13.312.185-19.989.299z" fill="#fff" fill-rule="evenodd"/>
 <path d="m133.321,336.242c-.458-5.809-.663-11.183-.709-16.488-.137-5.306-1.578-10.771.366-15.071 2.035-4.321 5.717-7.912 11.48-10.771-4.688,3.431-7.799,7.295-9.422,11.846-1.646,4.459 0,9.926-.274,15.07-.297,5.101-.778,10.154-1.441,15.414z" fill-rule="evenodd" stroke="#000" stroke-miterlimit="10" stroke-width=".036"/>
 <path d="m151.617,301.093c1.119,1.967 1.875,5.557 2.172,10.771 .274,5.283.184,11.893-.366,20.445l-16.146,3.225 17.93.366c1.349-10.771 1.623-18.936 1.074-24.768-.617-5.832-2.172-9.148-4.664-10.039z" fill-rule="evenodd" stroke="#000" stroke-miterlimit="10" stroke-width=".036"/>
 <path d="m145.533,315.088 .344,15.071 4.321-.732-.366-13.63-4.299-.709z" fill-rule="evenodd" stroke="#000" stroke-miterlimit="10" stroke-width=".036"/>
 <path d="m138.719,314.723-.366,15.779 4.299-.343v-14.727l-3.933-.709z" fill-rule="evenodd" stroke="#000" stroke-miterlimit="10" stroke-width=".036"/>
 <path d="m137.986,311.132c-.434-1.006-.434-2.355 0-4.3 .412-1.966 1.486-5.831 2.516-7.18 .983-1.373 1.967-1.761 3.225-1.075l-.709,12.555h-5.032z" fill-rule="evenodd" stroke="#000" stroke-miterlimit="10" stroke-width=".036"/>
 <path d="m146.242,300.018c2.173,1.121 3.637,2.676 4.299,4.665 .664,2.013.549,4.322-.343,7.181l-4.321-.731c.113-3.705.228-7.41.365-11.115z" fill-rule="evenodd" stroke="#000" stroke-miterlimit="10" stroke-width=".036"/>
 <path d="m200.738,412.326-1.715-46.584c2.699-1.509 5.396-2.424 8.004-2.835 2.584-.48 5.328-.069 7.707.274 2.355.319 4.391.892 6.289,1.715l.273,46.286c-6.836.367-13.696.756-20.558,1.144z" fill="#fff" fill-rule="evenodd"/>
 <path d="m208.445,364.896c-1.098-.366-2.172-.366-3.133,0-1.007.297-1.99.96-2.859,1.989l.847,16.878 5.442-.298c-.092-6.174-.182-12.371-.297-18.569z" fill-rule="evenodd" stroke="#000" stroke-miterlimit="10" stroke-width=".036"/>
 <path d="m211.875,364.896c1.373-.457 2.402-.549 3.432-.274 .959.206 1.691.801 2.286,1.692l-.847,18.569-4.871-.571v-19.416z" fill-rule="evenodd" stroke="#000" stroke-miterlimit="10" stroke-width=".036"/>
 <path d="m203.02 386.9 0.846 19.713h5.146l-0.846-18.867-5.146-0.846z" fill-rule="evenodd" stroke="#000" stroke-miterlimit="10" stroke-width=".036"/>
 <path d="m211.029,387.742c.115,4.665.206,8.393.275,11.435 .022,3.042.022,5.123 0,6.586h5.145l-.846-18.021h-4.574z" fill-rule="evenodd" stroke="#000" stroke-miterlimit="10" stroke-width=".036"/>
 <path d="m197.034,363.182c1.532-1.373 3.499-2.264 5.991-2.859 2.492-.617 5.648-1.074 8.85-.571 3.156.503 6.404,1.738 9.994,3.705-4.482-1.898-8.576-2.722-12.28-2.562-3.751.137-7.021,1.28-9.994,3.43-.297,14.637-.457,24.173-.571,29.136-.115,4.848-.115,4.848 0,0-.664-10.087-1.327-20.172-1.99-30.279z" fill-rule="evenodd" stroke="#000" stroke-miterlimit="10" stroke-width=".036"/>
 <path d="m220.749,369.471c.091,13.126.091,23.143 0,30.575-.138,7.341-.274,11.754-.595,13.424l-21.131-1.44 23.715,3.155c.092-15.55.023-26.87-.297-34.577-.343-7.708-.937-11.275-1.692-11.137z" fill-rule="evenodd" stroke="#000" stroke-miterlimit="10" stroke-width=".036"/>
 <path d="m127.696,420.788c-.938-13.035-1.349-24.516-1.144-35.149 .206-10.657.938-19.782 2.287-27.991 5.237-2.882 9.742-4.665 13.698-5.442 3.842-.824 5.992-.092 9.72.868 3.772.915 7.821,2.562 12.577,4.849 .641,9.284 1.053,18.889 1.145,29.432 .068,10.52-.092,21.36-.572,33.137-5.054,1.075-10.496,1.647-16.854,1.715s-13.196-.436-20.857-1.419z" fill="#fff" fill-rule="evenodd"/>
 <path d="m125.683,421.634c-.114-8.987-.114-17.128 0-24.857 .114-7.708.16-14.659.572-21.132 .32-6.586.8-12.463 1.441-17.997 3.019-2.745 6.541-4.619 10.566-5.718 4.023-1.166 8.415-1.783 13.424-.869 5.008.915 10.291,2.95 16.281,6.289-4.824-1.875-9.375-2.995-13.994-3.704-4.688-.732-9.309-1.098-13.425-.298-4.071.847-7.661,2.447-10.863,5.146-1.235,7.867-2.218,16.809-2.858,27.442-.663,10.588-1.075,22.342-1.144,35.698z" fill-rule="evenodd" stroke="#000" stroke-miterlimit="10" stroke-width=".036"/>
 <path d="m132.247,420.49c5.695-.045 11.137-.045 16.58,0 5.42.046 10.565.115 15.711.298 1.234-13.676 1.875-24.744 2.013-34.006 .091-9.262-.39-16.009-1.44-20.856 1.463,5.648 2.332,11.663 2.857,18.295 .436,6.609.229,14.682 0,21.131-.273,6.357-.686,11.915-1.417,16.854-8.073.092-14.842,0-20.582-.273-5.787-.299-10.269-.779-13.722-1.443z" fill-rule="evenodd" stroke="#000" stroke-miterlimit="10" stroke-width=".036"/>
 <path d="m147.248,372.215c-1.989.068-5.488,8.576-5.9,12.921-.411,4.299 2.059,10.451 3.522,12.623 1.417,1.944 3.772,1.876 5.122-.298 1.258-2.218 3.248-8.232 2.791-12.485-.526-4.3-3.637-12.785-5.535-12.761z" fill-rule="evenodd" stroke="#000" stroke-miterlimit="10" stroke-width=".036"/>
 <path d="m133.688,367.915-.572-7.707c1.075-1.234 2.516-2.126 4.574-2.858 2.012-.755 4.459-1.166 7.432-1.418v11.435c-3.796.182-7.616.365-11.434.548z" fill-rule="evenodd" stroke="#000" stroke-miterlimit="10" stroke-width=".036"/>
 <path d="m147.408,366.771v-10.268c3.773-.138 6.814.114 9.125.846 2.311.755 3.75,1.784 4.574,3.431v6.586c-4.551-.182-9.125-.388-13.699-.595z" fill-rule="evenodd" stroke="#000" stroke-miterlimit="10" stroke-width=".036"/>
 <path d="m34.46,364.324c5.488-2.537 10.771-5.694 16.282-9.719 5.489-4.048 10.771-8.713 16.283-14.271l20.285.572c4.551,2.836 9.536,6.105 15.139,9.993 5.648,3.842 11.571,8.188 18.295,13.127-8.187-1.875-16.1-3.453-23.989-4.551-7.89-1.189-15.482-2.218-23.144-2.287-7.775-.046-16.282.732-22.869,1.99-6.609,1.19-11.891,2.906-16.282,5.146z" fill="#616161" fill-rule="evenodd"/>
 <path d="m120.149,362.45c-5.854-3.683-11.297-7.364-16.511-11.138-5.283-3.797-10.062-7.593-14.705-11.48l-23.692-1.417c-3.362,3.956-7.661,7.935-12.898,12.188-5.375,4.185-11.389,8.462-18.661,12.921 6.015-2.127 11.686-4.939 17.357-8.622 5.648-3.727 10.954-8.141 16.283-13.424l19.804,1.602c5.648,3.772 11.297,7.295 17.22,10.748 5.9,3.431 15.62,8.37 17.952,9.696 2.195,1.235.64.549-4.665-2.149l2.516,1.075z" fill-rule="evenodd" stroke="#000" stroke-miterlimit="10" stroke-width=".036"/>
 <path d="m57.329,358.036c8.095-1.944 16.328-2.607 25.133-1.989 8.804.64 17.678,2.446 27.145,5.694-11.549-1.876-21.497-3.111-30.278-3.705-8.828-.64-15.986-.64-22,0z" fill-rule="evenodd" stroke="#000" stroke-miterlimit="10" stroke-width=".036"/>
 <path d="m34.757,428.037c11.777.504 22.777,1.007 33.708,1.418 10.909.366 22.458,1.189 31.125,1.144 8.553-.046 15.139-.549 20.01-1.418l4.848-4.002c7.044-.572 13.882-.983 20.856-1.144 6.952-.229 13.699-.229 20.582,0l1.418,5.717c10.383.389 20.559.641 30.873.572 10.313-.092 21.496-.412 30.552-.869 9.011-.549 16.581-1.098 23.144-1.989l.571,13.721c-8.896.755-12.097,2.355-25.681,2.744-13.607.366-37.688-.503-55.16-.457-17.494.045-37.024-.297-56.577-.297-19.576,0-12.898,1.144-26.413.96l-39.769-.549c-13.401-.183-13.561-.777-13.813-1.556-1.303-2.813-1.967-5.351-1.989-7.706-.069-2.379.503-4.414 1.715-6.289z" fill="#616161" fill-rule="evenodd"/>
 <path d="m123.876,424.904c9.673-.869 17.723-1.44 24.858-1.716 7.045-.297 12.647-.297 17.152,0-8.851.298-16.442.801-23.144,1.418-6.769.618-12.212,1.35-16.854,2.287v2.858c2.676-.571 6.837-.983 12.578-1.144 5.785-.228 12.875-.228 21.703,0-5.146.275-10.338.687-16.009,1.144s-11.48,1.029-17.7,1.716l-.297,3.704c5.58-1.029 10.313-1.692 14.293-1.989 3.956-.366 7.066-.366 9.422,0-3.979.777-7.822,1.44-11.709,1.989s-7.639.847-11.435,1.144v5.146c3.179-.252 6.518-.252 10.017,0 3.453.229 7.066.709 10.84,1.44-3.979.366-7.959.732-12.281.847s-8.713.114-13.424,0c1.395-1.646 2.218-4.025 2.561-7.135 .322-3.202.161-7.021-.571-11.709z" fill-rule="evenodd" stroke="#000" stroke-miterlimit="10" stroke-width=".036"/>
 <path d="m165.018,428.608v14.568l-13.424-.275c1.326-.343 2.858-.663 4.871-.869 1.92-.273 4.23-.434 6.838-.571v-6.563l-7.135-.869 6.859-.274 1.991-5.147z" fill-rule="evenodd" stroke="#000" stroke-miterlimit="10" stroke-width=".036"/>
 <path d="m32.173,426.894c9.331.503 19.347,1.006 30.575,1.418 11.183.411 26.162,1.029 36.293,1.144 10.04.068 17.815-.092 23.692-.571-1.373,1.326-6.449,2.058-15.414,2.286-9.147.16-26.024-.869-38.282-1.143-12.258-.298-23.578-.458-34.578-.572-.229,2.676-.229,4.939 0,7.158 .16,2.173.571,4.047 1.143,5.717 16.077.686 30.85,1.098 44.846,1.144 14.019.045 26.642-.274 38.58-.869l-.274,1.716c-9.994.754-21.794,1.006-36.018.846-14.316-.206-30.278-.869-48.848-1.989-1.052-4.391-1.715-7.821-1.99-10.566-.297-2.746-.205-4.622.275-5.719z" fill-rule="evenodd" stroke="#000" stroke-miterlimit="10" stroke-width=".036"/>
 <path d="m170.461,428.037c.251,1.121 7.043,1.532 20.559,1.144 13.629-.412 33.342-1.555 60.282-3.431l1.715,17.427-3.705-15.438c-14.247,2.036-27.603,3.088-40.866,3.157-13.288.068-25.682-.915-37.985-2.859z" fill-rule="evenodd" stroke="#000" stroke-miterlimit="10" stroke-width=".036"/>
 <path d="m171.031,441.187c6.473,1.235 15.963,1.898 28.838,1.99 12.944.091 28.654-.412 48.002-1.418-4.917,1.463-12.075,2.446-22,2.858-9.993.343-28.197.274-37.139-.297-8.873-.55-13.08-2.355-15.985-2.859-2.95-.549-3.521-.64-1.716-.274z" fill-rule="evenodd" stroke="#000" stroke-miterlimit="10" stroke-width=".036"/>
 <path d="m35.329,428.312c-.8-11.022-1.372-20.33-1.715-28.266-.48-7.981-.641-8.896-.572-19.142 .068-10.358.48-24.218 1.143-42.284-2.401,11.595-3.705,23.51-4.001,36.271-.275,12.783 1.372,30.644 2.287,39.723 .868,8.941 1.76,13.446 2.858,13.698z" fill-rule="evenodd" stroke="#000" stroke-miterlimit="10" stroke-width=".036"/>
 <path d="m250.455,333.749c1.189,3.888 2.035,10.794 2.287,21.153 .252,10.383-.023,28.93-.571,40.569-.618,11.571-1.51,20.788-2.859,28.266 2.355-10.999 3.91-20.787 4.849-29.98 .938-9.17 1.098-14.544.571-24.584-.641-10.131-2.036-21.702-4.277-35.424z" fill-rule="evenodd" stroke="#000" stroke-miterlimit="10" stroke-width=".036"/>
 <path d="m102.174,324.259c-12.006-1.715-22.686-2.607-32.565-2.858-9.971-.229-18.912.48-26.299,1.417-7.364.847-13.081,2.059-17.426,3.729l6.289,8.575-3.133-8.004c13.264-1.967 24.607-3.179 34.555-3.728 9.994-.572 17.952.411 24.584.572 6.471.16 11.022.228 13.995.297z" fill-rule="evenodd" stroke="#000" stroke-miterlimit="10" stroke-width=".036"/>
 <path d="m159.301,271.981c16.191-1.944 31.627-3.157 47.201-3.545 15.527-.436 30.301-.046 45.211,1.074 3.361,12.853 5.786,23.853 7.524,33.366 1.646,9.468 2.516,17.151 2.516,23.325-2.722-13.606-5.352-24.584-7.89-33.365-2.631-8.781-5.055-15.024-7.524-19.004-1.761-1.188-9.742-1.897-24.31-2.218-14.681-.297-35.241-.205-62.728.367z" fill-rule="evenodd" stroke="#000" stroke-miterlimit="10" stroke-width=".036"/>
 <path d="m185.027,322.475c4.277-1.509 10.063-2.4 17.701-2.858 7.684-.48 17.951-.274 27.717.274 9.628.549 19.393,1.464 29.729,2.927l-6.289,6.861 2.858-5.42c-7.112-.983-14.271-1.646-22-2.081-7.774-.48-15.688-.641-24.012-.571-8.369.068-16.761.296-25.704.868z" fill-rule="evenodd" stroke="#000" stroke-miterlimit="10" stroke-width=".036"/>
 <path d="m45.551,446.698c.892,4.253 2.264,7.89 4.025,11.183 1.807,3.248 4.093,6.792 6.609,8.256 2.401,1.349 6.198,1.144 7.867.183 1.646-.938 2.287-2.927 2.013-5.877 3.499,1.623 6.403,2.059 8.804,1.304 2.355-.801 4.185-2.699 5.489-5.878 3.087,1.464 4.985,1.28 5.694-.731 .594-2.035-.16-7.913-1.463-11.183-1.281-3.339-4.094-6.77-6.061-8.438-2.035-1.67-3.934-2.127-6.038-1.464-2.218.595-4.368,2.31-6.792,5.146-1.898-1.372-3.727-2.287-5.671-2.744-2.013-.435-4.3-.435-5.877,0-1.555.343-2.745.983-3.476,2.013-1.921-.687-3.385-.869-4.391-.366-1.006.435-1.555,1.646-1.646,3.109-.115,1.463.159,3.2.914,5.487z" fill="#ffc080" fill-rule="evenodd"/>
 <path d="m51.909 436.89c3.979-2.127 7.707-2.31 11.274-0.549 3.568 1.737 6.815 5.351 9.994 10.931-3.956-4.185-7.546-7.089-11.137-8.804-3.591-1.738-6.907-2.265-10.131-1.578z" fill-rule="evenodd" stroke="#000" stroke-miterlimit="10" stroke-width=".036"/>
 <path d="m68.26,436.271c3.019-3.385 5.9-4.163 8.987-2.585 3.064,1.624 7.433,8.576 9.125,12.212 1.578,3.591 1.35,7.318.458,9.079-.96,1.715-2.996,2.013-6.105,1.075 2.446.229 3.842-.732 4.276-2.882 .32-2.219-.252-7.112-1.807-10.017-1.601-2.927-4.688-6.312-7.227-7.433-2.516-1.165-5.054-.982-7.707.551z" fill-rule="evenodd" stroke="#000" stroke-miterlimit="10" stroke-width=".036"/>
 <path d="m80.174,456.052c-.229,3.979-1.418,6.334-3.659,7.157-2.241.755-5.443.069-9.697-2.31 3.499.503 6.335.389 8.599-.435 2.219-.822 3.774-2.263 4.757-4.412z" fill-rule="evenodd" stroke="#000" stroke-miterlimit="10" stroke-width=".036"/>
 <path d="m52.869,463.575c4.276,3.499 7.478,4.939 9.788,4.597 2.241-.457 3.499-2.698 3.774-6.997-.892,3.086-2.425,4.756-4.688,5.19-2.287.365-5.215-.503-8.874-2.79z" fill-rule="evenodd" stroke="#000" stroke-miterlimit="10" stroke-width=".036"/>
 <path d="m26.524,433.777c.114,1.967.8,4.437 2.058,7.592 1.235,3.156 3.407,7.547 5.374,11.047 1.921,3.43 3.842,6.54 6.197,9.33 2.31,2.652 5.169,5.785 7.615,6.746 2.424.846 5.146,0 6.563-1.212 1.327-1.235 1.647-3.225 1.212-6.061l-11.229-17.266c-1.555-1.053-3.202-2.173-4.849-3.454-1.692-1.28-3.384-2.629-5.168-4.139-2.582-.844-5.166-1.714-7.773-2.583z" fill="#ffc080" fill-rule="evenodd"/>
 <path d="m55.179,465.199c-.229,2.127-1.029,3.476-2.401,4.139-1.418.595-2.996,1.807-5.877-.343-2.996-2.286-8.096-7.547-11.412-12.783-3.339-5.215-5.9-11.252-8.118-18.295 2.241,5.03 4.665,9.695 7.272,13.995 2.584,4.276 5.786,9.011 8.278,11.731 2.424,2.653 4.323,4.002 6.403,4.322 2.036.23 3.957-.662 5.855-2.766z" fill-rule="evenodd" stroke="#000" stroke-miterlimit="10" stroke-width=".036"/>
 <path d="m49.53,458.178c-3.728-6.357-5.671-11.274-5.923-15.024-.252-3.773 1.967-8.575 4.551-7.272 2.561,1.327 6.197,6.221 10.908,15.025-5.763-7.295-9.696-11.274-11.8-12.304-2.058-1.006-1.418,3.064-.915,6.381 .389,3.315 1.418,7.591 3.179,13.194z" fill-rule="evenodd" stroke="#000" stroke-miterlimit="10" stroke-width=".036"/>
 <path d="m43.104,428.586c1.304,2.744 1.761,4.849 1.373,6.403-.412,1.509-1.967,2.127-3.796,2.744-1.944.572-4.597,1.075-7.433.709-2.927-.525-7.295-1.738-9.673-3.293-2.355-1.555-3.819-3.75-4.665-5.878-.984-2.172-1.418-5.03-1.029-6.906 .274-1.943.663-2.973 3.11-4.321 2.47-1.373 6.266-2.607 11.571-3.796-.297,3.636.48,6.517 2.241,8.986 1.784,2.379 4.459,4.162 8.301,5.352z" fill="#ffc080" fill-rule="evenodd"/>
 <path d="m23.917,416.512c-2.035.525-3.521,1.098-4.642,1.715-1.098.617-1.738,1.189-1.921,1.898-1.738,4.688-1.304,8.483 1.212,11.754 2.493,3.202 9.445,6.289 13.813,7.41 4.23,1.006 10.177.64 11.938-1.189 1.715-1.875 1.28-5.214-1.396-10.017 1.441,3.156 1.556,5.512.343,7.249-1.326,1.762-4.093,3.271-7.775,2.928-3.75-.549-11.114-3.064-13.973-5.694-2.813-2.676-3.202-7.341-2.767-10.017 .412-2.744 2.104-4.665 5.168-6.037z" fill-rule="evenodd" stroke="#000" stroke-miterlimit="10" stroke-width=".036"/>
 <path d="m32.905 417.88c0.251 2.722 0.686 4.825 1.212 6.22 0.457 1.326 0.503 1.578 1.898 2.241s3.499 1.327 6.403 1.898c-1.966-0.823-3.842-2.058-5.374-3.796-1.555-1.716-3.019-3.934-4.139-6.563z" fill-rule="evenodd" stroke="#000" stroke-miterlimit="10" stroke-width=".036"/>
 <path d="m23.734,413.446c-3.087-13.697-6.334-28.54-9.834-45.508-3.613-17.038-9.284-39.083-11.091-55.366-1.738-16.213.526-29.568.618-41.209-.091-11.64-3.59-20.216-.618-28.288 3.019-8.188 1.647-14.659 18.456-20.285 16.922-5.671 43.679-9.947 81.755-13.264-20.536,1.121-38.259,3.637-54.062,7.729-15.917,4.048-32.656,6.906-39.998,16.604-7.204,9.787-2.607,29.203-3.064,41.208-.595,11.801-1.532,14.637 0,29.501 1.509,14.911 6.197,40.684 9.216,59.048 2.996,18.318 5.809,34.577 8.622,49.83z" fill-rule="evenodd" stroke="#000" stroke-miterlimit="10" stroke-width=".036"/>
 <path d="m23.597,407.181c.435-1.783 1.395-3.293 2.881-4.619 1.441-1.35 3.407-2.47 5.9-3.362l.16,4.46c-2.264.503-3.979,1.166-5.42,2.081-1.44.869-2.424,1.898-3.042,3.179-.159-.572-.319-1.145-.479-1.739z" fill-rule="evenodd" stroke="#000" stroke-miterlimit="10" stroke-width=".036"/>
 <path d="m263.765,418.409c-1.006-1.646-1.669-3.407-2.241-5.19-.525-1.876.39-3.683-1.052-5.694-1.486-1.99-4.162-4.094-7.936-6.221l-.869,13.995c4.025,1.029 8.05,2.058 12.098,3.11z" fill="#ffc080" fill-rule="evenodd"/>
 <path d="m239.387,446.698c-.961,4.253-2.31,7.89-4.048,11.183-1.898,3.248-4.094,6.792-6.586,8.256-2.47,1.349-6.243,1.144-7.89.183-1.67-.938-2.31-2.927-2.013-5.877-3.521,1.623-6.427,2.059-8.805,1.304-2.401-.801-4.231-2.699-5.488-5.878-3.11,1.464-5.008,1.28-5.694-.731-.686-2.035.16-7.913 1.486-11.183 1.235-3.339 3.979-6.77 6.037-8.438 1.967-1.67 3.865-2.127 6.037-1.464 2.173.595 4.346,2.31 6.793,5.146 1.852-1.372 3.75-2.287 5.694-2.744 1.966-.435 4.208-.435 5.854,0 1.532.343 2.721.983 3.476,2.013 1.944-.687 3.385-.869 4.414-.366 1.006.435 1.463,1.646 1.646,3.109 .094,1.463-.182,3.2-.913,5.487z" fill="#ffc080" fill-rule="evenodd"/>
 <path d="m233.03 436.89c-4.048-2.127-7.661-2.31-11.273-0.549-3.568 1.737-6.907 5.351-10.018 10.931 3.865-4.185 7.547-7.089 11.137-8.804 3.568-1.738 6.861-2.265 10.154-1.578z" fill-rule="evenodd" stroke="#000" stroke-miterlimit="10" stroke-width=".036"/>
 <path d="m216.655,436.271c-3.042-3.385-5.946-4.163-8.987-2.585-3.133,1.624-7.501,8.576-9.125,12.212-1.646,3.591-1.418,7.318-.457,9.079 .914,1.715 2.95,2.013 6.105,1.075-2.469.229-3.865-.732-4.276-2.882-.365-2.219.206-7.112 1.808-10.017 1.531-2.927 4.642-6.312 7.227-7.433 2.491-1.165 5.029-.982 7.705.551z" fill-rule="evenodd" stroke="#000" stroke-miterlimit="10" stroke-width=".036"/>
 <path d="m204.74,456.052c.207,3.979 1.395,6.334 3.659,7.157 2.196.755 5.466.069 9.72-2.31-3.568.503-6.381.389-8.622-.435s-3.796-2.263-4.757-4.412z" fill-rule="evenodd" stroke="#000" stroke-miterlimit="10" stroke-width=".036"/>
 <path d="m232.046,463.575c-4.322,3.499-7.455,4.939-9.765,4.597-2.241-.457-3.568-2.698-3.797-6.997 .916,3.086 2.402,4.756 4.711,5.19 2.243.365 5.192-.503 8.851-2.79z" fill-rule="evenodd" stroke="#000" stroke-miterlimit="10" stroke-width=".036"/>
 <path d="m258.414,433.777c-.115,1.967-.893,4.437-2.082,7.592-1.326,3.156-3.407,7.547-5.351,11.047-1.944,3.43-3.957,6.54-6.221,9.33-2.401,2.652-5.168,5.785-7.592,6.746-2.47.846-5.215,0-6.563-1.212-1.35-1.235-1.67-3.225-1.213-6.061l11.229-17.266c1.556-1.053 3.134-2.173 4.826-3.454s3.339-2.629 5.191-4.139c2.584-.844 5.169-1.714 7.776-2.583z" fill="#ffc080" fill-rule="evenodd"/>
 <path d="m229.736,465.199c.252,2.127 1.029,3.476 2.424,4.139 1.395.595 2.904,1.807 5.854-.343 2.927-2.286 8.05-7.547 11.411-12.783 3.316-5.215 5.878-11.252 8.119-18.295-2.287,5.03-4.643,9.695-7.25,13.995-2.676,4.276-5.854,9.011-8.301,11.731-2.516,2.653-4.346,4.002-6.381,4.322-2.034.23-4.023-.662-5.876-2.766z" fill-rule="evenodd" stroke="#000" stroke-miterlimit="10" stroke-width=".036"/>
 <path d="m235.407,458.178c3.705-6.357 5.672-11.274 5.9-15.024 .183-3.773-2.013-8.575-4.551-7.272-2.584,1.327-6.221,6.221-10.909,15.025 5.81-7.295 9.629-11.274 11.824-12.304 2.012-1.006 1.349,3.064.914,6.381-.41,3.315-1.439,7.591-3.178,13.194z" fill-rule="evenodd" stroke="#000" stroke-miterlimit="10" stroke-width=".036"/>
 <path d="m241.834,428.586c-1.373,2.744-1.807,4.849-1.396,6.403 .366,1.509 1.898,2.127 3.797,2.744 1.875.572 4.527,1.075 7.432.709 2.859-.525 7.227-1.738 9.674-3.293 2.287-1.555 3.751-3.75 4.665-5.878 .915-2.172 1.35-5.03 1.029-6.906-.32-1.897-.709-3.041-3.11-4.321-2.516-1.373-6.335-2.47-11.709-3.545-.48,4.162-1.531,7.318-3.247,9.719-1.739,2.379-4.116,3.751-7.135,4.368z" fill="#ffc080" fill-rule="evenodd"/>
 <path d="m260.998,416.512c2.058.525 3.498,1.098 4.665,1.715 1.074.617 1.738,1.189 1.897,1.898 1.716,4.688 1.281,8.483-1.212,11.754-2.516,3.202-9.559,6.289-13.813,7.41-4.322,1.006-10.177.64-11.915-1.189-1.783-1.875-1.326-5.214 1.373-10.017-1.464,3.156-1.578,5.512-.344,7.249 1.281,1.762 4.048,3.271 7.775,2.928 3.659-.549 11.092-3.064 13.996-5.694 2.79-2.676 3.087-7.341 2.744-10.017-.433-2.744-2.125-4.665-5.166-6.037z" fill-rule="evenodd" stroke="#000" stroke-miterlimit="10" stroke-width=".036"/>
 <path d="m252.011,417.884c-.275,2.722-.709,4.825-1.212,6.22-.504,1.326-.55,1.578-1.898,2.241-1.396.663-3.522,1.327-6.381,1.898 1.967-.823 3.751-2.058 5.352-3.796 1.577-1.716 2.927-3.934 4.139-6.563z" fill-rule="evenodd" stroke="#000" stroke-miterlimit="10" stroke-width=".036"/>
 <path d="m261.203,413.446c3.133-13.697 6.267-28.54 9.834-45.508 3.499-17.038 9.217-39.083 11.068-55.366 1.67-16.213-.595-29.568-.617-41.209 .022-11.64 3.521-20.216.617-28.288-3.019-8.118-1.646-14.591-18.455-20.285-17.083-5.831-44.022-10.405-82.418-14.155 20.832,1.555 38.785,4.368 54.747,8.621 15.894,4.186 32.634,6.93 39.975,16.604 7.158,9.787 2.538,29.203 3.064,41.208 .525,11.801 1.463,14.637 0,29.501-1.646,14.911-6.221,40.684-9.216,59.048-3.041,18.317-5.785,34.576-8.599,49.829z" fill-rule="evenodd" stroke="#000" stroke-miterlimit="10" stroke-width=".036"/>
 <path d="m261.317,407.181c-.457-1.783-1.417-3.293-2.881-4.619-1.464-1.35-3.431-2.47-5.9-3.362l-.16,4.46c2.241.503 3.934,1.166 5.42,2.081 1.418.869 2.401,1.898 3.042,3.179 .16-.572.319-1.145.479-1.739z" fill-rule="evenodd" stroke="#000" stroke-miterlimit="10" stroke-width=".036"/>
 <path d="m133.916,3.09c-6.632-3.064-14.019-3.842-22.412-2.241-8.484,1.578-21.474,2.287-27.762,11.64-6.289,9.331-5.283,34.577-9.856,43.908-4.711,9.17-10.978,11.754-17.929,11.206-6.998-.617-14.819-5.511-23.738-14.773 2.516,5.671 5.466,10.154 8.942,13.447 3.385,3.271 6.77,5.763 11.663,6.244 4.848.412 12.875,1.486 17.472-3.568 4.505-5.168 7.318-18.043 9.856-26.894 2.539-8.919.892-19.347 5.374-25.979 4.437-6.655 12.898-11.251 21.063-13.447s17.036-2.013 27.327.457z" fill-rule="evenodd" stroke="#000" stroke-miterlimit="10" stroke-width=".036"/>
 <path d="m86.875,76.567c-4.025,8.187-9.285,14.042-16.123,17.929-6.929,3.796-17.883,6.083-24.653,4.917-6.814-1.258-13.629-6.701-15.688-12.098-2.013-5.42-.846-12.075 3.59-20.147-2.264,8.805-2.562,15.162-.892,19.69 1.624,4.368 5.534,5.763 10.749,6.746 5.237.983 12.875,1.853 20.17-.915 7.25-2.857 14.66-8.231 22.847-16.122z" fill-rule="evenodd" stroke="#000" stroke-miterlimit="10" stroke-width=".036"/>
 <path d="m85.96,109.27c-4.025,8.188-9.284,14.042-16.122,17.93-6.884,3.75-17.883,6.128-24.63,4.939-6.815-1.235-13.63-6.746-15.688-12.12-2.012-5.42-.846-12.075 3.59-20.148-2.264,8.782-2.561,15.231-.892,19.713 1.624,4.391 5.535,5.694 10.749,6.723 5.191.961 12.875,1.898 20.147-.892 7.25-2.927 14.659-8.164 22.846-16.145z" fill-rule="evenodd" stroke="#000" stroke-miterlimit="10" stroke-width=".036"/>
 <path d="m80.151,142.864c-2.79,8.187-6.403,14.041-11.091,17.929-4.779,3.751-12.28,6.129-16.946,4.939-4.711-1.234-9.399-6.746-10.794-12.12-1.349-5.42-.64-12.074 2.47-20.147-1.555,8.781-1.761,15.23-.617,19.713 1.121,4.391 3.796,5.694 7.409,6.724 3.545.96 8.874,1.898 13.858-.892 4.917-2.928 10.154-8.164 15.711-16.146z" fill-rule="evenodd" stroke="#000" stroke-miterlimit="10" stroke-width=".036"/>
 <path d="m94.49,173.348c-2.79,8.188-6.403,14.042-11.091,17.93-4.779,3.796-12.28,6.083-16.946,4.917-4.711-1.258-9.399-6.701-10.794-12.098-1.349-5.42-.641-12.075 2.47-20.147-1.555,8.781-1.761,15.23-.617,19.689 1.12,4.392 3.796,5.694 7.409,6.724 3.544.961 8.873,1.898 13.858-.892 4.917-2.882 10.154-8.164 15.711-16.123z" fill-rule="evenodd" stroke="#000" stroke-miterlimit="10" stroke-width=".036"/>
 <path d="m111.55,85.738c4.253-1.601 8.256-2.47 12.098-2.698 3.842-.251 9.102-.686 10.748,1.349 1.533,1.99-.091,8.987-1.349,10.771-1.349,1.692-4.848,1.098-6.266-.457-1.418-1.624-2.196-4.551-2.242-8.965-2.333.274-4.573.458-6.723.458-2.195-.001-4.253-.184-6.266-.458z" fill-rule="evenodd" stroke="#000" stroke-miterlimit="10" stroke-width=".036"/>
 <path d="m139.29,108.835c-4.116,3.843-6.175,6.861-6.266,9.399-.091,2.47 1.853,4.23 5.832,5.374-1.898-1.761-2.768-3.818-2.698-6.266 .045-2.469 1.119-5.305 3.132-8.507z" fill-rule="evenodd" stroke="#000" stroke-miterlimit="10" stroke-width=".036"/>
 <path d="m162.548,3.09c6.608-3.064 13.995-3.842 22.411-2.241 8.416,1.578 21.383,2.287 27.785,11.64 6.221,9.331 5.215,34.577 9.857,43.908 4.619,9.17 10.885,11.754 17.905,11.206 7.021-.617 14.797-5.511 23.762-14.773-2.585,5.671-5.512,10.154-8.965,13.447-3.453,3.271-6.838,5.763-11.664,6.244-4.916.412-12.92,1.486-17.472-3.568-4.572-5.168-7.363-18.043-9.855-26.894-2.585-8.919-.961-19.347-5.375-25.979-4.504-6.655-12.967-11.251-21.062-13.447-8.186-2.195-17.059-2.013-27.327.457z" fill-rule="evenodd" stroke="#000" stroke-miterlimit="10" stroke-width=".036"/>
 <path d="m209.611,76.567c3.979,8.187 9.262,14.042 16.123,17.929 6.814,3.796 17.814,6.083 24.629,4.917 6.77-1.258 13.562-6.701 15.688-12.098 1.989-5.42.823-12.075-3.59-20.147 2.24,8.805 2.538,15.162.892,19.69-1.67,4.368-5.603,5.763-10.749,6.746-5.26.983-12.921,1.853-20.146-.915-7.296-2.857-14.706-8.231-22.847-16.122z" fill-rule="evenodd" stroke="#000" stroke-miterlimit="10" stroke-width=".036"/>
 <path d="m210.503,109.27c3.979,8.188 9.263,14.042 16.123,17.93 6.86,3.75 17.838,6.128 24.652,4.939 6.77-1.235 13.562-6.746 15.688-12.12 1.967-5.42.846-12.075-3.613-20.148 2.241,8.782 2.515,15.231.915,19.713-1.716,4.391-5.626,5.694-10.771,6.723-5.26.961-12.921,1.898-20.147-.892-7.295-2.927-14.705-8.164-22.847-16.145z" fill-rule="evenodd" stroke="#000" stroke-miterlimit="10" stroke-width=".036"/>
 <path d="m216.313,142.864c2.767,8.187 6.38,14.041 11.091,17.929 4.711,3.751 12.212,6.129 16.946,4.939 4.643-1.234 9.354-6.746 10.794-12.12 1.326-5.42.595-12.074-2.47-20.147 1.532,8.781 1.737,15.23.617,19.713-1.189,4.391-3.865,5.694-7.409,6.724-3.613.96-8.942,1.898-13.858-.892-4.941-2.928-10.178-8.164-15.711-16.146z" fill-rule="evenodd" stroke="#000" stroke-miterlimit="10" stroke-width=".036"/>
 <path d="m201.973,173.348c2.768,8.188 6.381,14.042 11.092,17.93 4.711,3.796 12.213,6.083 16.945,4.917 4.644-1.258 9.354-6.701 10.795-12.098 1.326-5.42.595-12.075-2.47-20.147 1.532,8.781 1.738,15.23.617,19.689-1.189,4.392-3.865,5.694-7.409,6.724-3.613.961-8.941,1.898-13.858-.892-4.941-2.882-10.177-8.164-15.712-16.123z" fill-rule="evenodd" stroke="#000" stroke-miterlimit="10" stroke-width=".036"/>
 <path d="m185.439,89.305c-3.865-2.515-7.523-4.139-11.229-5.214-3.773-1.075-8.781-2.676-10.794-1.006-1.944,1.669-1.944,8.736-.983,10.794 .938,1.875 4.367,2.149 6.22.915 1.692-1.258 3.064-3.979 4.116-8.256 2.219.778 4.346,1.373 6.473,1.875 2.127.458 4.162.755 6.197.892z" fill-rule="evenodd" stroke="#000" stroke-miterlimit="10" stroke-width=".036"/>
 <path d="m148.255,98.064 2.241,12.555c3.293,2.013 4.756,4.07 4.482,6.266-.32,2.149-2.379,4.392-6.267,6.724 3.11.16 5.352-.731 6.724-2.676 1.395-2.012 1.898-6.563 1.326-8.965-.732-2.378-3.956-3.109-5.352-5.374-1.439-2.332-2.491-5.145-3.154-8.53z" fill-rule="evenodd" stroke="#000" stroke-miterlimit="10" stroke-width=".036"/>
 <path d="m159.918,72.085c.343-.549 7.867-5.9 12.074-5.809 4.14.069 12.738,5.649 12.555,6.244-.434.526-10.153-3.133-14.338-3.133-4.162-.069-10.588,3.156-10.291,2.698z" fill-rule="evenodd" stroke="#000" stroke-miterlimit="10" stroke-width=".036"/>
 <path d="m115.095,71.651c.251-.732 7.546-5.58 10.771-5.375 3.11.206 8.233,5.969 8.05,6.701-.274.595-6.289-2.447-9.399-2.676-3.225-.251-9.628,1.99-9.422,1.35z" fill-rule="evenodd" stroke="#000" stroke-miterlimit="10" stroke-width=".036"/>
 <path d="m91.792,51.023c4.665-5.992 9.056-8.347 13.447-7.158 4.345,1.235 6.678,14.156 12.555,14.316 5.877,0 13.195-4.505 22.388-13.881-5.168,7.295-9.947,12.143-14.338,14.796-4.459,2.584-8.37,2.676-12.075.892-3.728-1.83-6.724-10.177-10.314-11.641-3.727-1.532-7.524-.64-11.663,2.676z" fill-rule="evenodd" stroke="#000" stroke-miterlimit="10" stroke-width=".036"/>
 <path d="m136.615,57.747c10.474-7.569 17.997-11.869 22.846-12.99 4.779-1.075 1.875,6.335 5.83,6.267 3.957-.161 9.605-2.516 17.473-7.158-6.838,6.289-12.189,9.788-16.146,10.749-4.002.869-2.63-5.923-7.614-5.375-5.078.548-12.397,3.293-22.389,8.507z" fill-rule="evenodd" stroke="#000" stroke-miterlimit="10" stroke-width=".036"/>
 <path d="m188.139,50.588c.319,2.63 1.783,4.025 4.481,4.46 2.698.343 6.518-.366 11.641-2.219-5.763.617-9.765.823-12.532.435-2.722-.389-3.889-1.281-3.59-2.676z" fill-rule="evenodd" stroke="#000" stroke-miterlimit="10" stroke-width=".036"/>
 <path d="m159.461,3.09c-5.695-1.441-10.291-1.715-13.882-.915-3.683.824-9.399,2.973-7.638,5.832 1.829,2.744 13.195,5.214 18.387,10.771 5.076,5.534 9.078,12.966 12.098,22.389-1.029-9.262-3.362-16.306-7.182-21.497-3.956-5.168-13.264-6.837-15.665-9.422-2.378-2.653-.549-5.123 1.784-6.266 2.378-1.212 6.266-1.509 12.098-.892z" fill-rule="evenodd" stroke="#000" stroke-miterlimit="10" stroke-width=".036"/>
 <path d="m131.332,147.461c.823.594 2.31.457 4.55-.32 2.219-.847 5.763-3.979 8.782-4.551 2.95-.641 6.267.16 8.805.983 2.424.846 3.109,3.087 5.854,3.888 2.745.686 6.128.8 10.405.343-.869,3.179-2.63,5.877-5.534,8.438-2.995,2.562-7.547,5.558-11.709,6.518-4.208.823-9.399-.274-13.013-1.623-3.681-1.533-6.586-4.574-8.461-6.838-1.921-2.287-2.676-4.368-2.607-6.495 .961-.115 1.944-.229 2.928-.343z" fill="#c16562" fill-rule="evenodd"/>
 <path d="m133.024,151.828c2.653.847 6.152,1.235 10.749,1.35 4.597.068 10.04-.229 16.58-.892-1.486,2.172-4.323,3.225-8.942,3.156-4.643-.115-10.657-1.258-18.387-3.614z" fill-rule="evenodd" stroke="#000" stroke-miterlimit="10" stroke-width=".036"/>
 <path d="m118.64,140.303c.823,1.189 2.63,2.378 5.42,3.476 2.79,1.029 7.524,3.659 11.206,3.134 3.567-.618 7.067-5.558 10.314-6.267 3.202-.709 6.151.069 8.941,2.241-4.619.389-8.415,1.075-11.64,2.241-3.316,1.098-4.826,4.002-7.616,4.482-2.835.343-6.151-.229-8.964-1.807s-5.283-4.047-7.661-7.5z" fill-rule="evenodd" stroke="#000" stroke-miterlimit="10" stroke-width=".036"/>
 <path d="m128.43 151.56c1.052 2.744 3.11 5.1 6.267 7.157 3.179 2.013 7.25 3.659 12.554 4.939-5.008-2.767-8.896-5.122-12.097-7.157-3.156-2.036-5.397-3.681-6.724-4.939z" fill-rule="evenodd" stroke="#000" stroke-miterlimit="10" stroke-width=".036"/>
 <path d="m168.38 150.57c-1.074 2.79-3.133 5.123-6.266 7.182-3.202 2.035-7.295 3.613-12.555 4.917 4.984-2.768 8.873-5.123 12.098-7.158 3.11-2.035 5.351-3.683 6.723-4.941z" fill-rule="evenodd" stroke="#000" stroke-miterlimit="10" stroke-width=".036"/>
 <path d="m177.549,140.623c-.777,1.029-2.377,2.081-5.145,3.155-2.79,1.075-7.615,3.591-11.205,3.134-3.66-.618-7.09-5.558-10.291-6.267s-6.221.069-8.965,2.241c4.596.389 8.393,1.075 11.64,2.241 3.247,1.098 4.757,4.002 7.616,4.482 2.766.389 6.197-.298 8.963-1.807 2.768-1.553 5.147-3.864 7.387-7.179z" fill-rule="evenodd" stroke="#000" stroke-miterlimit="10" stroke-width=".036"/>
 <path d="m89.116,128.914c-.274,2.241 1.235,7.021 2.584,9.125 1.281,1.921 3.728,3.407 5.214,2.606 1.417-.869 3.796-4.894 3.247-7.478-.663-2.653-4.962-7.455-6.815-8.142-1.897-.708-3.956,1.648-4.23,3.889z" fill="#169253" fill-rule="evenodd"/>
 <path d="m93.621,123.792c3.957.892 6.312,2.652 7.158,5.374 .8,2.744-.32,8.827-2.219,10.748-2.012,1.761-7.798,1.967-9.422,0-1.601-2.081-1.601-5.992 0-12.098 1.578,6.93 3.042,10.703 4.482,11.663 1.441.823 3.934-3.613 4.025-6.266-.044-2.63-1.325-5.739-4.024-9.421z" fill-rule="evenodd" stroke="#000" stroke-miterlimit="10" stroke-width=".036"/>
 <path d="m198.748,123.86c-1.326,1.144-2.057,4.962-2.286,7.478-.343,2.516-.479,5.626.64,7.479 1.121,1.761 4.621,4.322 6.176,3.27 1.486-1.166 2.767-6.769 2.949-9.765 .092-3.109-.709-6.678-1.966-8.142-1.327-1.463-4.163-1.487-5.513-.32z" fill="#169253" fill-rule="evenodd"/>
 <path d="m201.539,122.739c-3.979.938-6.335,2.653-7.158,5.397-.846,2.744.275,8.85 2.219,10.726 1.967,1.761 7.752,1.967 9.422,0 1.555-2.081 1.555-6.015 0-12.075-1.602,6.884-3.064,10.703-4.482,11.641-1.486.823-4.002-3.613-4.025-6.267 .022-2.63 1.302-5.739 4.024-9.422z" fill-rule="evenodd" stroke="#000" stroke-miterlimit="10" stroke-width=".036"/>
 <path d="m110.178,179.065c2.104,4.505 5.237,8.05 9.765,11.068 4.482,2.95 9.993,5.831 16.969,6.518 6.975.617 16.534-.068 24.355-2.95 7.775-3.041 14.864-7.936 21.793-14.956-6.54,5.786-13.813,9.88-22.182,12.372-8.416,2.447-19.142,4.437-27.672,2.447-8.552-2.036-16.053-6.837-23.028-14.499z" fill-rule="evenodd" stroke="#000" stroke-miterlimit="10" stroke-width=".036"/>
 <path d="m108.669,209.526c3.179,5.969 6.723,11.114 10.817,15.779 4.094,4.643 8.873,9.079 13.538,11.731 4.574,2.516 9.102,3.613 13.767,3.385-7.936-3.316-14.087-6.563-18.729-9.925s-6.334-6.541-9.033-10.153c-2.767-3.728-5.214-7.524-7.432-11.732-2.584-.068-4.825-.022-6.998.229s-6.563.915-5.854,1.121c.685.092 3.932-.023 9.924-.435z" fill-rule="evenodd" stroke="#000" stroke-miterlimit="10" stroke-width=".036"/>
 <path d="m148.141,239.965c2.63-.755 5.396-2.15 8.575-4.277 3.134-2.194 6.839-3.909 10.132-8.575 3.201-4.756 6.151-11.046 9.032-19.393l11.732,1.12-8.805.893c-1.419,5.831-3.865,10.908-7.433,15.573-3.613,4.62-10.131,9.399-13.996,11.96-3.909,2.401-6.928,3.362-9.237,2.699z" fill-rule="evenodd" stroke="#000" stroke-miterlimit="10" stroke-width=".036"/>
 <path d="m123.785,196.217c-.023,2.401-.915,4.939-2.493,7.89-1.692,2.928-3.979,5.991-7.227,9.468 2.79-.823 4.985-2.219 6.77-4.276 1.738-2.127 3.087-5.946 3.613-8.118 .481-2.22.229-3.843-.663-4.964z" fill-rule="evenodd" stroke="#000" stroke-miterlimit="10" stroke-width=".036"/>
 <path d="m164.834,195.073c-.022,1.464.984,3.316 2.928,5.648 1.967,2.355 4.871,4.917 8.805,8.118-2.013-3.772-3.889-6.723-5.877-9.032s-3.912-3.887-5.856-4.734z" fill-rule="evenodd" stroke="#000" stroke-miterlimit="10" stroke-width=".036"/>
 <path d="m94.582,168.82c.754-.938 1.075-3.179 1.052-6.815-.069-3.636-.503-8.575-1.304-14.91 1.715,5.191 3.659,9.994 6.015,14.659 2.333,4.665 4.894,8.941 7.867,13.081-4.094-4.597-6.952-8.348-8.918-11.252-1.944-2.973-2.813-4.985-2.607-6.289 .32,3.293.32,5.946 0,7.867-.344,1.921-1.076,3.11-2.105,3.659z" fill-rule="evenodd" stroke="#000" stroke-miterlimit="10" stroke-width=".036"/>
 <path d="m190.104,169.071c1.029-3.728 2.424-8.004 4.185-13.081 1.784-5.145 3.797-10.726 6.289-17.266-.709,4.895-1.052,9.834-.777,14.91 .16,5.1.938,10.131 2.082,15.437-1.625-3.27-2.723-6.472-3.385-9.947-.709-3.477-.801-7.021-.527-10.726-1.279,5.969-2.675,10.68-3.934,14.133-1.279,3.43-2.675,5.58-3.933,6.54z" fill-rule="evenodd" stroke="#000" stroke-miterlimit="10" stroke-width=".036"/>
 <path d="m91.06,117c-1.784-9.193-2.493-17.403-2.035-24.996 .412-7.684 2.607-14.11 4.642-20.33 1.99-6.175 5.969-13.836 7.272-16.557 1.189-2.79 1.189-2.79 0,0-4.231,9.513-7.021,19.187-8.713,29.638-1.669,10.382-2.058,20.925-1.166,32.245z" fill-rule="evenodd" stroke="#000" stroke-miterlimit="10" stroke-width=".036"/>
 <path d="m197.354,58.615c1.533,8.69 2.699,17.906 3.5,28.175 .754,10.268 1.143,20.971 1.166,32.816 1.989-6.426 2.928-13.446 2.904-21.497-.115-8.073-1.944-19.827-3.201-26.436-1.259-6.654-2.745-10.885-4.369-13.058z" fill-rule="evenodd" stroke="#000" stroke-miterlimit="10" stroke-width=".036"/>
</svg>
