<?xml version="1.0" encoding="UTF-8"?>
<svg width="50.8mm" height="50.8mm" viewBox="0 0 160 160" xmlns="http://www.w3.org/2000/svg" xmlns:xlink="http://www.w3.org/1999/xlink">
 <defs>
  <linearGradient id="a">
   <stop stop-color="#fff" offset="0"/>
   <stop stop-color="#fff" stop-opacity="0" offset="1"/>
  </linearGradient>
  <linearGradient id="o" x1="1.6198" x2=".15702" y1="-.27344" y2=".47656">
   <stop stop-opacity=".70056" offset="0"/>
   <stop stop-opacity="0" offset="1"/>
  </linearGradient>
  <linearGradient id="e">
   <stop stop-opacity=".40784" offset="0"/>
   <stop stop-opacity=".0791" offset=".64778"/>
   <stop stop-opacity="0" offset="1"/>
  </linearGradient>
  <linearGradient id="n" x1=".63536" x2=".46961" y1="-.0625" y2="1.2109">
   <stop stop-color="#3075a7" offset="0"/>
   <stop stop-color="#9aadbc" offset=".43156"/>
   <stop stop-color="#dce0e3" offset=".84995"/>
   <stop stop-color="#eee" offset="1"/>
  </linearGradient>
  <linearGradient id="f">
   <stop stop-color="#dadada" offset="0"/>
   <stop stop-color="#f1f1f1" offset=".34923"/>
   <stop stop-color="#f0f0f0" offset="1"/>
  </linearGradient>
  <linearGradient id="p" x1=".05217" x2=".78261" y1=".97656" y2=".00781">
   <stop stop-opacity=".09551" offset="0"/>
   <stop stop-opacity="0" offset="1"/>
  </linearGradient>
  <linearGradient id="d" x1=".70345" x2=".62069" y1="-1.3984" y2=".46094" xlink:href="#a"/>
  <linearGradient id="c" x1=".80921" x2=".56579" y1="-1.3672" y2=".63281" xlink:href="#a"/>
  <linearGradient id="h" x1="1.0518" y1="-.57813" y2=".34375" xlink:href="#a"/>
  <linearGradient id="k" x1=".72727" x2=".61616" y1="-.27344" y2=".67188" xlink:href="#a"/>
  <linearGradient id="j" x1="1.0382" x2=".37705" y1="-1.3984" y2=".375" xlink:href="#a"/>
  <linearGradient id="g" x1="1.1239" x2=".38938" y1="-1.6016" y2=".70313" xlink:href="#a"/>
  <linearGradient id="l" x1="1.1111" x2=".41667" y1=".39063" y2=".74219" xlink:href="#a"/>
  <linearGradient id="i" x1=".94619" x2=".5157" y1="-.57031" y2=".74219" xlink:href="#a"/>
  <linearGradient id="m" x1=".47489" x2=".43379" y1=".30323" y2=".79355" xlink:href="#e"/>
  <linearGradient id="s" x1=".88034" x2=".08547" y1=".21094" y2="1.1797" xlink:href="#f"/>
  <linearGradient id="r" x1=".63248" x2="-.37607" y1=".32813" y2="1.3281" xlink:href="#f"/>
  <linearGradient id="q" x1=".85827" x2=".06299" y1=".14063" y2=".54688" xlink:href="#a"/>
  <radialGradient id="b" cx=".49032" cy=".50649" r=".46014" fx=".54355" fy=".19231" xlink:href="#e"/>
 </defs>
 <path d="m17.159 6.3293v146.96h134.11v-110.22l-33.528-36.739h-100.58z" fill="#fff" fill-rule="evenodd"/>
 <g transform="matrix(.30417 0 0 .29757 -36.704 -112.49)" fill="url(#p)" fill-opacity=".75" fill-rule="evenodd">
  <path d="m173.36 408.81v489.04h435.05v-366.78l-108.76-122.26h-326.29z"/>
  <path d="m170.12 407.19v493.91h441.53v-371.28c-36.847-41.423-73.68-82.859-110.56-124.25h-330.97v1.625z"/>
  <path d="m166.88 403.94v500.41h448.03v-375.78c-37.451-42.09-74.889-84.192-112.38-126.25h-335.66v1.625z"/>
 </g>
 <path transform="matrix(.29669 0 0 .29669 -71.196 -34.058)" d="m297.99 136.74v495.32h452.02v-371.49l-113.01-123.83h-339.02z" fill="url(#s)" fill-rule="evenodd" stroke="#000" stroke-opacity=".36478" stroke-width="1.4375"/>
 <path transform="matrix(.29669 0 0 .29669 -71.196 -34.058)" d="m301.31 174.91-2.0359 454h443.82l0.25448-112.23c-9.9248 3.8172-110.19-138.18-236.41-132.08-126.34 6.1131-93.649-191.37-205.62-209.69z" fill="url(#q)" fill-rule="evenodd"/>
 <path transform="translate(-5.014 -228.13)" d="m43.254 253.57 1.0412 75.522 95.68-2.7868-1.4036-72.461-95.317-0.27465z" fill="url(#n)" fill-rule="evenodd" stroke="url(#m)" stroke-opacity=".08075" stroke-width=".7985"/>
 <path transform="translate(-5.014 -228.13)" d="m40.639 251.89c20.974-0.87391 22.018 30.217 53.109 25.886 30.234-4.2116 47.983 0.8322 44.488 30.545l-95.443-3.464-2.1542-52.966z" fill="url(#i)" fill-rule="evenodd"/>
 <path transform="matrix(1.063 0 0 .26243 52.699 104.65)" d="m82.055 175.84a56.143 56.143 0 1 0 -112.29 0 56.143 56.143 0 1 0 112.29 0z" fill="url(#b)" fill-rule="evenodd" opacity=".54268"/>
 <path transform="matrix(.71627 0 0 .23672 29.292 83.275)" d="m82.055 175.84a56.143 56.143 0 1 0 -112.29 0 56.143 56.143 0 1 0 112.29 0z" fill="url(#b)" fill-rule="evenodd" opacity=".54268"/>
 <path transform="matrix(1.2046 0 0 -.36289 57.381 193.64)" d="m82.055 175.84a56.143 56.143 0 1 0 -112.29 0 56.143 56.143 0 1 0 112.29 0z" fill="url(#b)" fill-rule="evenodd"/>
 <path transform="matrix(.48789 0 0 .48789 -2.9832 31.728)" d="m85.104 111.36c-6.4892-0.38935-11.181-14.149-10.767-20.291s1.0588-20.682 14.08-17.392c13.113 3.3128 12.837 13.734 12.423 19.877s-8.8342 18.221-15.736 17.806z" fill="#ded6b5" fill-rule="evenodd"/>
 <path transform="matrix(.48789 0 0 .48789 -2.9832 31.728)" d="m85.65 78.643s13.599-0.66338 14.594 10.614-8.9556 16.916-10.282 17.579-7.2971-24.877-4.312-28.194z" fill="url(#l)" fill-rule="evenodd"/>
 <path transform="matrix(.48789 0 0 .48789 -170.61 38.664)" d="m471.97 97.585s-2.0314-14.897 3.3857-16.252 3.3857 3.3857 3.3857 3.3857 11.147-12.623 16.929-8.1258c6.0943 4.74-2.7086 19.637-8.1258 23.7s-10.157 9.4801-10.157 9.4801l-5.4172-12.189z" fill="#dbd5b5" fill-rule="evenodd"/>
 <path transform="matrix(.48789 0 0 .48789 -2.9832 31.728)" d="m61.352 166.88-0.17055-31.164c-0.07906-14.445 1.1857-31.242 20.154-31.67 19.676-0.44471 24.659 9.3823 26.992 25.912 8.1576-1.5595 17.035-8.8773 20.154-20.874l11.517 13.316c-4.1534 18.294-24.671 21.366-29.871 25.192l1.4822 14.822c0.90054 9.0054-8.6265 15.934-24.113 16.791-16.161 0.89446-26.1-4.2865-26.144-12.326z" fill="#add9f6" fill-rule="evenodd"/>
 <path transform="matrix(.48789 0 0 .48789 -2.9832 31.728)" d="m92.132 131.04s6.1182 16.195 13.316 16.195 16.195-6.8379 16.195-6.8379l-11.517 8.2775s0 10.437 1.4396 16.195c2.5192 4.6786-12.956 5.3984-19.074-0.71979s-26.632-33.47-5.3984-42.467c7.1978-2.1594 5.0385 9.3572 5.0385 9.3572z" fill="url(#o)" fill-rule="evenodd"/>
 <g transform="matrix(.40906 0 0 .40906 6.1452 41.291)" fill-rule="evenodd">
  <path d="m69.769 83.637c0 3.5504 8.223 6.432 12.549 6.5619s12.166-3.2714 12.166-6.8218-1.8254-6.993-9.5982-6.993c-14.666 0-15.117 3.7024-15.117 7.2529z" fill="url(#g)"/>
  <path d="m67.237 91.396 7.2411-2.0018c3.3028-0.91305 5.0714-11.81 8.7338-11.202 7.3248 1.2162 15.767-0.76125 16.05-4.8448 0.27863-4.0187-0.01774-6.813-17.623-10.247-17.518-3.4165-20.902 16.915-14.402 28.296z" fill="#7f7769"/>
  <path d="m66.716 74.024c1.2776 4.3615 24.612 4.4193 26.023-0.28983s3.0351-9.3264-12.81-9.6163c-16.248-0.28982-14.423 5.7766-13.213 9.9061z" fill="url(#j)"/>
 </g>
 <path transform="matrix(.48789 0 0 .48789 -170.61 38.664)" d="m472.47 95.892s-1.9879-13.42 3.3132-14.64 3.3132 3.05 3.3132 3.05 10.908-11.371 16.566-7.3201c5.9637 4.2701-2.6505 17.69-7.9516 21.35s-9.9395 8.5401-9.9395 8.5401l-5.3011-10.98z" fill="url(#k)" fill-rule="evenodd"/>
 <path transform="matrix(.48789 0 0 .48789 -170.61 38.664)" d="m409.01 153.27-0.14443-31.164c-0.06695-14.445 1.0041-31.242 17.068-31.67 16.663-0.44471 20.883 9.3823 22.858 25.912 6.9083-1.5595 5.9276 13.808 1.5239 17.635l1.2552 14.822c0.76263 9.0054-7.3055 15.934-20.42 16.791-13.686 0.89446-22.103-4.2865-22.14-12.326z" fill="url(#h)" fill-rule="evenodd"/>
 <path transform="matrix(.98434 0 0 .98434 9.5614 168.46)" d="m55.992-53.587c-3.7328-0.22397-6.4317-8.1388-6.1934-11.672s0.60905-11.897 8.0991-10.005c7.5432 1.9057 7.3845 7.9006 7.1462 11.434s-5.0818 10.481-9.0519 10.243z" fill="#ded6b5" fill-rule="evenodd"/>
 <path transform="matrix(.98434 0 0 .98434 9.5614 168.46)" d="m40.471-30.013s-7.0266-24.593 6.441-26.35 22.836-4.6844 24.593 9.3688-1.1711 19.909-5.27 19.909-22.836 4.6844-25.764-2.9278z" fill="#606060" fill-rule="evenodd"/>
 <path transform="matrix(.98434 0 0 .98434 9.5614 168.46)" d="m42.87-34.947c-2.5598-10.605-0.86438-22.042 13.614-21.826s16.423 22.69 16.423 22.69c0.97243 3.1334-29.93 4.322-30.038-0.86439z" fill="url(#c)" fill-rule="evenodd"/>
 <g transform="matrix(.43346 0 0 .43346 -24.775 -16.46)" fill-rule="evenodd">
  <path d="m229.75 278.76c-1.8666 8.8656-35.219 8.983-37.281-0.58911s-5.0666-29.604 16.498-28.713c21.521 0.8894 22.551 20.909 20.783 29.302z" fill="#7f7769"/>
  <path d="m225.59 274.6c-1.4727 6.9946-28.37 7.0873-29.997-0.46479s-3.4986-22.189 14.766-22.654c18.729-0.46479 16.625 16.496 15.231 23.119z" fill="url(#d)"/>
 </g>
 <path transform="matrix(.98434 0 0 .98434 9.5614 168.46)" d="m83.081-54.361c4.0834-0.24501 7.0357-8.9031 6.7751-12.768s-0.6663-13.014-8.8598-10.944c-8.2516 2.0846-8.078 8.6426-7.8173 12.508s5.559 11.466 9.902 11.205z" fill="#ded6b5" fill-rule="evenodd"/>
 <path transform="matrix(.98434 0 0 .98434 9.5614 168.46)" d="m116.66-78.955c3.7328 0.22397 6.4317 8.1388 6.1935 11.672s-0.60906 11.897-8.0991 10.005c-7.5433-1.9057-7.3845-7.9006-7.1462-11.434s5.0818-10.481 9.0519-10.243z" fill="#ded6b5" fill-rule="evenodd"/>
 <path transform="matrix(.98434 0 0 .98434 9.5614 168.46)" d="m98.219-33.434s-7.0266-24.593 6.441-26.35 22.836-4.6844 24.593 9.3688-1.1711 19.909-5.27 19.909-22.836 4.6844-25.764-2.9278z" fill="#5d5d5d" fill-rule="evenodd"/>
 <path transform="matrix(.98434 0 0 .98434 9.5614 168.46)" d="m97.406-51.966s2.4268-8.8774 16.905-8.6613 16.423 22.69 16.423 22.69c0.97244 3.1334-33.221-8.8426-33.329-14.029z" fill="url(#c)" fill-rule="evenodd"/>
 <path transform="matrix(.98434 0 0 .98434 9.5614 168.46)" d="m100.06-28.573s3.664-28.731-12.897-30.653c-14.732-1.9216-19.13 0.72661-21.052 16.1s1.2811 17.756 5.7649 17.756 24.981 5.1243 28.184-3.2027z" fill="#5a5a5a" fill-rule="evenodd"/>
 <path transform="matrix(.98434 0 0 .98434 9.5614 168.46)" d="m69.615-36.821c-2.1941-14.262-0.86438-22.042 13.614-21.826s13.864 8.4286 13.498 22.325c0.97244 3.1334-27.004 4.6876-27.112-0.49871z" fill="url(#c)" fill-rule="evenodd"/>
 <g transform="matrix(-.43346 0 0 .43346 181.83 -17.409)" fill-rule="evenodd">
  <path d="m229.75 278.76c-1.8666 8.8656-35.219 8.983-37.281-0.58911s-5.0666-29.604 16.498-28.713c21.521 0.8894 22.551 20.909 20.783 29.302z" fill="#7f7769"/>
  <path d="m225.59 274.6c-1.4727 6.9946-28.37 7.0873-29.997-0.46479s-3.4986-22.189 14.766-22.654c18.729-0.46479 16.625 16.496 15.231 23.119z" fill="url(#d)"/>
 </g>
 <g transform="matrix(.43346 0 0 .43346 32.147 -19.781)" fill-rule="evenodd">
  <path d="m229.75 278.76c-1.8666 8.8656-35.219 8.983-37.281-0.58911s-5.0666-29.604 16.498-28.713c21.521 0.8894 22.551 20.909 20.783 29.302z" fill="#7f7769"/>
  <path d="m225.59 274.6c-1.4727 6.9946-28.37 7.0873-29.997-0.46479s-3.4986-22.189 14.766-22.654c18.729-0.46479 16.625 16.496 15.231 23.119z" fill="url(#d)"/>
 </g>
 <path transform="matrix(.29669 0 0 .29669 -71.196 -34.058)" d="m750.01 260.57c-34.07-10.086-78.216-8.6561-111.57-2.9072 5.7583-36.949 6.478-83.255-1.4396-120.92l113.01 123.83z" fill="url(#r)" fill-rule="evenodd"/>
</svg>
