<?xml version="1.0" encoding="UTF-8" standalone="no"?>
<svg
   xmlns:dc="http://purl.org/dc/elements/1.1/"
   xmlns:cc="http://creativecommons.org/ns#"
   xmlns:rdf="http://www.w3.org/1999/02/22-rdf-syntax-ns#"
   xmlns:svg="http://www.w3.org/2000/svg"
   xmlns="http://www.w3.org/2000/svg"
   viewBox="0 0 72 79.786667"
   height="79.786667"
   width="72"
   xml:space="preserve"
   id="svg2"
   version="1.1"><metadata
     id="metadata8"><rdf:RDF><cc:Work
         rdf:about=""><dc:format>image/svg+xml</dc:format><dc:type
           rdf:resource="http://purl.org/dc/dcmitype/StillImage" /></cc:Work></rdf:RDF></metadata><defs
     id="defs6" /><g
     transform="matrix(1.3333333,0,0,-1.3333333,0,79.786667)"
     id="g10"><g
       transform="scale(0.1)"
       id="g12"><path
         id="path14"
         style="fill:#1a68bb;fill-opacity:1;fill-rule:nonzero;stroke:none"
         d="m 139.688,174.063 h 6.14 c 4,0 6.985,0 9.309,-2.09 2.027,-1.844 3.043,-4.297 3.043,-7.278 0,-4.832 -3.578,-8.406 -9.071,-8.406 h -3.992 l 12.582,-20.461 h 4.953 l -10.257,16.582 c 5.964,0.422 10.257,5.899 10.257,12.348 0,4.414 -2.086,8.648 -5.488,11.035 -2.984,2.09 -6.203,2.437 -10.199,2.437 H 135.57 v -42.402 h 4.118 v 38.235 0" /><path
         id="path16"
         style="fill:#1a68bb;fill-opacity:1;fill-rule:nonzero;stroke:none"
         d="m 182.402,159.211 v 14.852 h 17.832 v 4.167 h -22.007 v -42.402 h 22.007 v 4.113 h -17.832 v 15.098 h 17.832 v 4.172 h -17.832 v 0" /><path
         id="path18"
         style="fill:#1a68bb;fill-opacity:1;fill-rule:nonzero;stroke:none"
         d="m 216.086,135.828 5.066,13.305 H 240 l 5.066,-13.305 h 4.481 l -16.402,42.402 h -5.016 l -16.457,-42.402 h 4.414 z m 22.484,17.121 h -15.988 l 7.938,21.289 8.05,-21.289 v 0" /><path
         id="path20"
         style="fill:#1a68bb;fill-opacity:1;fill-rule:nonzero;stroke:none"
         d="m 280.723,135.828 v 4.113 h -14.907 v 38.289 h -4.175 v -42.402 h 19.082 v 0" /><path
         id="path22"
         style="fill:#1a68bb;fill-opacity:1;fill-rule:nonzero;stroke:none"
         d="m 301.695,135.828 v 38.235 h 8.465 v 4.167 h -21.113 v -4.167 h 8.473 v -38.235 h 4.175 v 0" /><path
         id="path24"
         style="fill:#1a68bb;fill-opacity:1;fill-rule:nonzero;stroke:none"
         d="m 323.379,157.246 c 0,5.184 2.512,10.43 6.504,13.84 3.047,2.555 6.738,3.934 10.676,3.934 9.839,0 17.476,-8.235 17.476,-17.657 0,-10.437 -7.637,-18.371 -17.176,-18.371 -9.726,0 -17.48,7.754 -17.48,18.254 z m -4.352,0.059 c 0,-12.649 9.364,-22.317 21.532,-22.317 6.382,0 11.875,2.453 16.16,7.16 3.761,4.122 5.605,9.129 5.605,15.157 0,6.023 -2.195,11.328 -6.496,15.566 -4.18,4.109 -9.246,6.199 -15.215,6.199 -5.84,0 -10.847,-2.09 -14.968,-6.14 -4.293,-4.239 -6.618,-9.727 -6.618,-15.625 v 0" /><path
         id="path26"
         style="fill:#1a68bb;fill-opacity:1;fill-rule:nonzero;stroke:none"
         d="m 380.559,174.063 h 6.14 c 3.992,0 6.985,0 9.309,-2.09 2.027,-1.844 3.035,-4.297 3.035,-7.278 0,-4.832 -3.574,-8.406 -9.063,-8.406 h -3.996 l 12.59,-20.461 h 4.942 l -10.254,16.582 c 5.968,0.422 10.254,5.899 10.254,12.348 0,4.414 -2.078,8.648 -5.481,11.035 -2.984,2.09 -6.211,2.437 -10.203,2.437 h -11.387 v -42.402 h 4.114 v 38.235 0" /><path
         id="path28"
         style="fill:#1a68bb;fill-opacity:1;fill-rule:nonzero;stroke:none"
         d="M 278.551,227.059 V 328.531 L 384.109,227.059 Z m -29.188,0.312 h -76.121 v 203.957 h 76.121 z m 29.188,203.641 h 30.094 c 27.773,-2.824 47.91,-24.524 47.671,-51.364 -0.242,-26.593 -20.164,-47.691 -47.671,-50.488 l -30.094,0.024 z M 135,463.406 v -270 h 270 v 270 H 135" /><path
         id="path30"
         style="fill:#1a68bb;fill-opacity:1;fill-rule:nonzero;stroke:none"
         d="m 409.434,182.043 c 1.738,0 2.531,-0.449 2.531,-1.633 0,-1.199 -0.793,-1.543 -2.531,-1.543 h -1.653 v 3.176 h 1.653 z m 0.254,0.895 h -3.235 v -8.829 h 1.328 v 3.879 h 2.063 l 1.867,-3.879 h 1.519 l -1.98,4.075 c 1.289,0.175 2.09,1.093 2.09,2.312 0,1.699 -1.211,2.442 -3.652,2.442 z m 6.601,-4.559 c 0,-1.867 -0.664,-3.516 -1.941,-4.766 -1.36,-1.328 -3.098,-2.031 -4.895,-2.031 -1.797,0 -3.496,0.703 -4.805,2.012 -1.308,1.308 -2.011,3.008 -2.011,4.804 0,1.805 0.73,3.516 2.058,4.864 1.262,1.269 2.91,1.98 4.758,1.98 1.863,0 3.582,-0.711 4.895,-2.019 1.257,-1.258 1.941,-2.981 1.941,-4.844 z m -6.836,7.695 c -2.082,0 -3.945,-0.769 -5.359,-2.207 -1.477,-1.504 -2.297,-3.457 -2.297,-5.469 0,-2.043 0.801,-3.945 2.258,-5.402 1.453,-1.484 3.367,-2.273 5.398,-2.273 2.012,0 3.965,0.808 5.469,2.293 1.433,1.418 2.207,3.285 2.207,5.382 0,2.063 -0.774,3.985 -2.207,5.418 -1.453,1.489 -3.367,2.258 -5.469,2.258 v 0" /></g></g></svg>